Coda-Bold.ufo
<glyph name="exclam" format="1">
  <advance width="883"/>
  <unicode hex="0021"/>
  <outline>
    <contour>
      <point x="439" y="539" type="curve" smooth="yes"/>
      <point x="464" y="539"/>
      <point x="488" y="562"/>
      <point x="499" y="607" type="curve" smooth="yes"/>
      <point x="562" y="874"/>
      <point x="697" y="1253"/>
      <point x="697" y="1411" type="curve" smooth="yes"/>
      <point x="697" y="1556"/>
      <point x="566" y="1631"/>
      <point x="437" y="1631" type="curve" smooth="yes"/>
      <point x="311" y="1631"/>
      <point x="186" y="1560"/>
      <point x="186" y="1413" type="curve" smooth="yes"/>
      <point x="186" y="1259"/>
      <point x="314" y="880"/>
      <point x="378" y="607" type="curve" smooth="yes"/>
      <point x="389" y="561"/>
      <point x="414" y="539"/>
    </contour>
    <contour>
      <point x="439" y="-39" type="curve" smooth="yes"/>
      <point x="541" y="-39"/>
      <point x="643" y="31"/>
      <point x="643" y="171" type="curve" smooth="yes"/>
      <point x="643" y="311"/>
      <point x="541" y="381"/>
      <point x="439" y="381" type="curve" smooth="yes"/>
      <point x="337" y="381"/>
      <point x="235" y="311"/>
      <point x="235" y="171" type="curve" smooth="yes"/>
      <point x="235" y="31"/>
      <point x="337" y="-39"/>
    </contour>
  </outline>
</glyph>
<glyph name="quotedbl" format="1">
  <advance width="1257"/>
  <unicode hex="0022"/>
  <outline>
    <contour>
      <point x="376" y="837" type="curve" smooth="yes"/>
      <point x="398" y="837"/>
      <point x="422" y="857"/>
      <point x="431" y="896" type="curve" smooth="yes"/>
      <point x="476" y="1086"/>
      <point x="569" y="1344"/>
      <point x="569" y="1452" type="curve" smooth="yes"/>
      <point x="569" y="1568"/>
      <point x="471" y="1629"/>
      <point x="374" y="1629" type="curve" smooth="yes"/>
      <point x="280" y="1629"/>
      <point x="188" y="1572"/>
      <point x="188" y="1454" type="curve" smooth="yes"/>
      <point x="188" y="1349"/>
      <point x="276" y="1090"/>
      <point x="321" y="896" type="curve"/>
      <point x="332" y="856"/>
      <point x="354" y="837"/>
    </contour>
    <contour>
      <point x="873" y="837" type="curve" smooth="yes"/>
      <point x="895" y="837"/>
      <point x="919" y="857"/>
      <point x="928" y="896" type="curve" smooth="yes"/>
      <point x="973" y="1086"/>
      <point x="1066" y="1344"/>
      <point x="1066" y="1452" type="curve" smooth="yes"/>
      <point x="1066" y="1568"/>
      <point x="968" y="1629"/>
      <point x="871" y="1629" type="curve" smooth="yes"/>
      <point x="777" y="1629"/>
      <point x="685" y="1572"/>
      <point x="685" y="1454" type="curve" smooth="yes"/>
      <point x="685" y="1349"/>
      <point x="773" y="1090"/>
      <point x="818" y="896" type="curve"/>
      <point x="829" y="856"/>
      <point x="851" y="837"/>
    </contour>
  </outline>
</glyph>
<glyph name="dollar" format="1">
  <advance width="1313"/>
  <unicode hex="0024"/>
  <outline>
    <contour>
      <point x="779" y="111" type="line"/>
      <point x="779" y="-204" type="line"/>
      <point x="913" y="-204" type="line"/>
      <point x="913" y="111" type="line"/>
    </contour>
    <contour>
      <point x="779" y="1805" type="line"/>
      <point x="779" y="1490" type="line"/>
      <point x="913" y="1490" type="line"/>
      <point x="913" y="1805" type="line"/>
    </contour>
    <component base="S"/>
  </outline>
</glyph>
<glyph name="percent" format="1">
  <advance width="3064"/>
  <unicode hex="0025"/>
  <outline>
    <contour>
      <point x="715" y="833" type="line"/>
      <point x="669" y="833" type="line"/>
      <point x="669" y="1378" type="line"/>
      <point x="715" y="1378" type="line"/>
      <point x="760" y="1378" type="line"/>
      <point x="760" y="833" type="line"/>
    </contour>
    <contour>
      <point x="712" y="618" type="curve" smooth="yes"/>
      <point x="935" y="618"/>
      <point x="1162" y="630"/>
      <point x="1162" y="929" type="curve" smooth="yes"/>
      <point x="1162" y="1288" type="line" smooth="yes"/>
      <point x="1162" y="1578"/>
      <point x="932" y="1595"/>
      <point x="711" y="1595" type="curve" smooth="yes"/>
      <point x="489" y="1595"/>
      <point x="262" y="1577"/>
      <point x="262" y="1286" type="curve" smooth="yes"/>
      <point x="262" y="927" type="line" smooth="yes"/>
      <point x="262" y="623"/>
      <point x="486" y="618"/>
    </contour>
    <contour>
      <point x="2354" y="347" type="line"/>
      <point x="2309" y="347" type="line"/>
      <point x="2309" y="892" type="line"/>
      <point x="2354" y="892" type="line"/>
      <point x="2399" y="892" type="line"/>
      <point x="2399" y="347" type="line"/>
    </contour>
    <contour>
      <point x="2352" y="129" type="curve" smooth="yes"/>
      <point x="2573" y="129"/>
      <point x="2802" y="153"/>
      <point x="2802" y="442" type="curve" smooth="yes"/>
      <point x="2802" y="799" type="line" smooth="yes"/>
      <point x="2802" y="1092"/>
      <point x="2574" y="1109"/>
      <point x="2351" y="1109" type="curve" smooth="yes"/>
      <point x="2127" y="1109"/>
      <point x="1902" y="1091"/>
      <point x="1902" y="798" type="curve" smooth="yes"/>
      <point x="1902" y="441" type="line" smooth="yes"/>
      <point x="1902" y="146"/>
      <point x="2127" y="129"/>
    </contour>
    <contour>
      <point x="1152" y="-39" type="line"/>
      <point x="1540" y="-39" type="line"/>
      <point x="1916" y="1632" type="line"/>
      <point x="1532" y="1632" type="line"/>
    </contour>
  </outline>
</glyph>
<glyph name="ampersand" format="1">
  <advance width="1743"/>
  <unicode hex="0026"/>
  <outline>
    <contour>
      <point x="815" y="-22" type="curve" smooth="yes"/>
      <point x="1361" y="-22"/>
      <point x="1491" y="93"/>
      <point x="1491" y="531" type="curve"/>
      <point x="1491" y="734" type="line"/>
      <point x="1642" y="734" type="line"/>
      <point x="1642" y="927" type="line"/>
      <point x="1491" y="927" type="line"/>
      <point x="1491" y="1066" type="line"/>
      <point x="945" y="1066" type="line"/>
      <point x="945" y="927" type="line"/>
      <point x="841" y="927" type="line"/>
      <point x="736" y="927" type="line"/>
      <point x="736" y="1377" type="line"/>
      <point x="839" y="1377" type="line"/>
      <point x="942" y="1377" type="line"/>
      <point x="942" y="1209" type="line"/>
      <point x="1491" y="1229" type="line"/>
      <point x="1491" y="1263" type="line" smooth="yes"/>
      <point x="1491" y="1534"/>
      <point x="1299" y="1617"/>
      <point x="855" y="1617" type="curve" smooth="yes"/>
      <point x="442" y="1617"/>
      <point x="133" y="1579"/>
      <point x="133" y="1196" type="curve" smooth="yes"/>
      <point x="133" y="956"/>
      <point x="229" y="882"/>
      <point x="296" y="871" type="curve" smooth="yes"/>
      <point x="408" y="853" type="line"/>
      <point x="408" y="832" type="line"/>
      <point x="296" y="814" type="line" smooth="yes"/>
      <point x="175" y="795"/>
      <point x="134" y="587"/>
      <point x="134" y="474" type="curve" smooth="yes"/>
      <point x="134" y="34"/>
      <point x="410" y="-22"/>
    </contour>
    <contour>
      <point x="841" y="242" type="line"/>
      <point x="736" y="242" type="line"/>
      <point x="736" y="734" type="line"/>
      <point x="945" y="734" type="line"/>
      <point x="945" y="242" type="line"/>
    </contour>
  </outline>
</glyph>
<glyph name="parenleft" format="1">
  <advance width="1231"/>
  <unicode hex="0028"/>
  <outline>
    <contour>
      <point x="975" y="-169" type="curve"/>
      <point x="975" y="110" type="line"/>
      <point x="749" y="110"/>
      <point x="657" y="466"/>
      <point x="657" y="827" type="curve" smooth="yes"/>
      <point x="657" y="1188"/>
      <point x="749" y="1562"/>
      <point x="975" y="1562" type="curve"/>
      <point x="975" y="1841" type="line"/>
      <point x="457" y="1841"/>
      <point x="255" y="1328"/>
      <point x="255" y="827" type="curve" smooth="yes"/>
      <point x="255" y="326"/>
      <point x="457" y="-169"/>
    </contour>
  </outline>
</glyph>
<glyph name="parenright" format="1">
  <advance width="1231"/>
  <unicode hex="0029"/>
  <outline>
    <contour>
      <point x="255" y="-169" type="line"/>
      <point x="773" y="-169"/>
      <point x="975" y="326"/>
      <point x="975" y="827" type="curve" smooth="yes"/>
      <point x="975" y="1328"/>
      <point x="773" y="1841"/>
      <point x="255" y="1841" type="curve"/>
      <point x="255" y="1562" type="line"/>
      <point x="481" y="1562"/>
      <point x="573" y="1188"/>
      <point x="573" y="827" type="curve" smooth="yes"/>
      <point x="573" y="466"/>
      <point x="481" y="110"/>
      <point x="255" y="110" type="curve"/>
    </contour>
  </outline>
</glyph>
<glyph name="hyphen" format="1">
  <advance width="1333"/>
  <unicode hex="002D"/>
  <outline>
    <contour>
      <point x="234" y="506" type="line"/>
      <point x="1095" y="506" type="line"/>
      <point x="1095" y="799" type="line"/>
      <point x="234" y="799" type="line"/>
    </contour>
    <contour>
      <point x="694" y="652" type="move" name="_mid"/>
    </contour>
  </outline>
</glyph>
<glyph name="period" format="1">
  <advance width="981"/>
  <unicode hex="002E"/>
  <outline>
    <contour>
      <point x="484" y="-39" type="curve" smooth="yes"/>
      <point x="586" y="-39"/>
      <point x="688" y="31"/>
      <point x="688" y="171" type="curve" smooth="yes"/>
      <point x="688" y="311"/>
      <point x="586" y="381"/>
      <point x="484" y="381" type="curve" smooth="yes"/>
      <point x="382" y="381"/>
      <point x="280" y="311"/>
      <point x="280" y="171" type="curve" smooth="yes"/>
      <point x="280" y="31"/>
      <point x="382" y="-39"/>
    </contour>
  </outline>
</glyph>
<glyph name="zero" format="1">
  <advance width="1532"/>
  <unicode hex="0030"/>
  <outline>
    <contour>
      <point x="766" y="250" type="line"/>
      <point x="683" y="250" type="line"/>
      <point x="683" y="796" type="line"/>
      <point x="683" y="1343" type="line"/>
      <point x="766" y="1343" type="line"/>
      <point x="849" y="1343" type="line"/>
      <point x="849" y="796" type="line"/>
      <point x="849" y="250" type="line"/>
    </contour>
    <contour>
      <point x="769" y="-22" type="curve" smooth="yes"/>
      <point x="1081" y="-22"/>
      <point x="1413" y="-8"/>
      <point x="1413" y="369" type="curve" smooth="yes"/>
      <point x="1413" y="1226" type="line" smooth="yes"/>
      <point x="1413" y="1587"/>
      <point x="1086" y="1617"/>
      <point x="768" y="1617" type="curve" smooth="yes"/>
      <point x="459" y="1617"/>
      <point x="119" y="1594"/>
      <point x="119" y="1226" type="curve" smooth="yes"/>
      <point x="119" y="369" type="line" smooth="yes"/>
      <point x="119" y="3"/>
      <point x="452" y="-22"/>
    </contour>
  </outline>
</glyph>
<glyph name="two" format="1">
  <advance width="1532"/>
  <unicode hex="0032"/>
  <outline>
    <contour>
      <point x="163" y="1" type="line"/>
      <point x="1362" y="1" type="line"/>
      <point x="1362" y="301" type="line"/>
      <point x="715" y="301" type="line"/>
      <point x="715" y="423"/>
      <point x="837" y="494"/>
      <point x="943" y="545" type="curve" smooth="yes"/>
      <point x="1161" y="650"/>
      <point x="1434" y="776"/>
      <point x="1434" y="1125" type="curve" smooth="yes"/>
      <point x="1434" y="1500"/>
      <point x="1224" y="1633"/>
      <point x="803" y="1633" type="curve" smooth="yes"/>
      <point x="432" y="1633"/>
      <point x="161" y="1536"/>
      <point x="161" y="1124" type="curve"/>
      <point x="163" y="1064" type="line"/>
      <point x="715" y="1064" type="line"/>
      <point x="715" y="1358" type="line"/>
      <point x="791" y="1358" type="line"/>
      <point x="867" y="1358" type="line"/>
      <point x="867" y="1086" type="line" smooth="yes"/>
      <point x="867" y="989"/>
      <point x="752" y="936"/>
      <point x="658" y="890" type="curve"/>
      <point x="374" y="758"/>
      <point x="163" y="599"/>
      <point x="163" y="201" type="curve" smooth="yes"/>
    </contour>
  </outline>
</glyph>
<glyph name="three" format="1">
  <advance width="1532"/>
  <unicode hex="0033"/>
  <outline>
    <contour>
      <point x="780" y="-22" type="curve" smooth="yes"/>
      <point x="1205" y="-22"/>
      <point x="1430" y="133"/>
      <point x="1430" y="459" type="curve" smooth="yes"/>
      <point x="1430" y="638"/>
      <point x="1363" y="770"/>
      <point x="1227" y="820" type="curve"/>
      <point x="1348" y="859"/>
      <point x="1428" y="955"/>
      <point x="1428" y="1153" type="curve" smooth="yes"/>
      <point x="1428" y="1481"/>
      <point x="1211" y="1617"/>
      <point x="778" y="1617" type="curve" smooth="yes"/>
      <point x="357" y="1617"/>
      <point x="142" y="1488"/>
      <point x="136" y="1108" type="curve"/>
      <point x="135" y="1044" type="line"/>
      <point x="691" y="1024" type="line"/>
      <point x="691" y="1346" type="line"/>
      <point x="777" y="1346" type="line"/>
      <point x="863" y="1346" type="line"/>
      <point x="863" y="931" type="line"/>
      <point x="604" y="931" type="line"/>
      <point x="604" y="707" type="line"/>
      <point x="863" y="707" type="line"/>
      <point x="863" y="252" type="line"/>
      <point x="777" y="252" type="line"/>
      <point x="691" y="252" type="line"/>
      <point x="691" y="613" type="line"/>
      <point x="139" y="585" type="line"/>
      <point x="139" y="517" type="line" smooth="yes"/>
      <point x="139" y="139"/>
      <point x="294" y="-22"/>
    </contour>
  </outline>
</glyph>
<glyph name="four" format="1">
  <advance width="1532"/>
  <unicode hex="0034"/>
  <outline>
    <contour>
      <point x="370" y="1595" type="line"/>
      <point x="116" y="657" type="line"/>
      <point x="116" y="240" type="line"/>
      <point x="908" y="240" type="line"/>
      <point x="908" y="0" type="line"/>
      <point x="1420" y="0" type="line"/>
      <point x="1420" y="938" type="line"/>
      <point x="908" y="938" type="line"/>
      <point x="908" y="603" type="line"/>
      <point x="692" y="603" type="line"/>
      <point x="692" y="657" type="line"/>
      <point x="943" y="1595" type="line"/>
    </contour>
  </outline>
</glyph>
<glyph name="five" format="1">
  <advance width="1532"/>
  <unicode hex="0035"/>
  <outline>
    <contour>
      <point x="808" y="-39" type="curve" smooth="yes"/>
      <point x="1281" y="-39"/>
      <point x="1458" y="87"/>
      <point x="1458" y="553" type="curve" smooth="yes"/>
      <point x="1458" y="911"/>
      <point x="1335" y="1105"/>
      <point x="1009" y="1105" type="curve" smooth="yes"/>
      <point x="850" y="1105"/>
      <point x="757" y="1067"/>
      <point x="699" y="1018" type="curve"/>
      <point x="700" y="1299" type="line"/>
      <point x="1323" y="1299" type="line"/>
      <point x="1323" y="1596" type="line"/>
      <point x="230" y="1596" type="line"/>
      <point x="177" y="655" type="line"/>
      <point x="710" y="655" type="line"/>
      <point x="710" y="838" type="line"/>
      <point x="801" y="838" type="line"/>
      <point x="891" y="838" type="line"/>
      <point x="891" y="236" type="line"/>
      <point x="801" y="236" type="line"/>
      <point x="710" y="236" type="line"/>
      <point x="710" y="474" type="line"/>
      <point x="160" y="474" type="line"/>
      <point x="159" y="381" type="line" smooth="yes"/>
      <point x="156" y="77"/>
      <point x="324" y="-39"/>
    </contour>
  </outline>
</glyph>
<glyph name="six" format="1">
  <advance width="1532"/>
  <unicode hex="0036"/>
  <outline>
    <contour>
      <point x="774" y="-39" type="curve"/>
      <point x="1236" y="-36"/>
      <point x="1438" y="62"/>
      <point x="1438" y="523" type="curve" smooth="yes"/>
      <point x="1438" y="941"/>
      <point x="1279" y="1068"/>
      <point x="817" y="1068" type="curve"/>
      <point x="693" y="1068" type="line"/>
      <point x="693" y="1369" type="line"/>
      <point x="775" y="1369" type="line"/>
      <point x="856" y="1369" type="line"/>
      <point x="856" y="1158" type="line"/>
      <point x="1387" y="1178" type="line"/>
      <point x="1388" y="1237" type="line" smooth="yes"/>
      <point x="1394" y="1608"/>
      <point x="1092" y="1632"/>
      <point x="773" y="1632" type="curve" smooth="yes"/>
      <point x="318" y="1632"/>
      <point x="141" y="1496"/>
      <point x="141" y="1056" type="curve" smooth="yes"/>
      <point x="141" y="476" type="line" smooth="yes"/>
      <point x="141" y="93"/>
      <point x="338" y="-39"/>
    </contour>
    <contour>
      <point x="782" y="236" type="line"/>
      <point x="692" y="236" type="line"/>
      <point x="692" y="798" type="line"/>
      <point x="782" y="798" type="line"/>
      <point x="872" y="798" type="line"/>
      <point x="872" y="236" type="line"/>
    </contour>
  </outline>
</glyph>
<glyph name="seven" format="1">
  <advance width="1532"/>
  <unicode hex="0037"/>
  <outline>
    <contour>
      <point x="381" y="0" type="line"/>
      <point x="995" y="0" type="line"/>
      <point x="1401" y="1300" type="line"/>
      <point x="1401" y="1595" type="line"/>
      <point x="159" y="1595" type="line"/>
      <point x="159" y="1300" type="line"/>
      <point x="783" y="1300" type="line"/>
    </contour>
  </outline>
</glyph>
<glyph name="eight" format="1">
  <advance width="1532"/>
  <unicode hex="0038"/>
  <outline>
    <contour>
      <point x="764" y="-22" type="curve" smooth="yes"/>
      <point x="1231" y="-22"/>
      <point x="1458" y="55"/>
      <point x="1458" y="416" type="curve" smooth="yes"/>
      <point x="1458" y="720"/>
      <point x="1384" y="781"/>
      <point x="1211" y="854" type="curve"/>
      <point x="1336" y="904"/>
      <point x="1368" y="1020"/>
      <point x="1368" y="1206" type="curve" smooth="yes"/>
      <point x="1368" y="1521"/>
      <point x="1214" y="1617"/>
      <point x="763" y="1617" type="curve" smooth="yes"/>
      <point x="302" y="1617"/>
      <point x="150" y="1521"/>
      <point x="150" y="1206" type="curve" smooth="yes"/>
      <point x="150" y="1020"/>
      <point x="181" y="904"/>
      <point x="305" y="854" type="curve"/>
      <point x="132" y="781"/>
      <point x="60" y="720"/>
      <point x="60" y="416" type="curve" smooth="yes"/>
      <point x="60" y="54"/>
      <point x="287" y="-22"/>
    </contour>
    <contour>
      <point x="763" y="249" type="curve" smooth="yes"/>
      <point x="598" y="249"/>
      <point x="582" y="301"/>
      <point x="582" y="435" type="curve" smooth="yes"/>
      <point x="582" y="489" type="line" smooth="yes"/>
      <point x="582" y="696"/>
      <point x="642" y="698"/>
      <point x="764" y="698" type="curve" smooth="yes"/>
      <point x="877" y="698"/>
      <point x="938" y="695"/>
      <point x="938" y="489" type="curve" smooth="yes"/>
      <point x="938" y="435" type="line" smooth="yes"/>
      <point x="938" y="301"/>
      <point x="921" y="249"/>
    </contour>
    <contour>
      <point x="706" y="916" type="line"/>
      <point x="637" y="980"/>
      <point x="631" y="1052"/>
      <point x="631" y="1186" type="curve" smooth="yes"/>
      <point x="631" y="1331"/>
      <point x="683" y="1344"/>
      <point x="764" y="1344" type="curve" smooth="yes"/>
      <point x="836" y="1344"/>
      <point x="888" y="1330"/>
      <point x="888" y="1186" type="curve" smooth="yes"/>
      <point x="888" y="1041"/>
      <point x="872" y="980"/>
      <point x="803" y="916" type="curve"/>
    </contour>
  </outline>
</glyph>
<glyph name="nine" format="1">
  <advance width="1532"/>
  <unicode hex="0039"/>
  <outline>
    <contour>
      <point x="784" y="-40" type="curve" smooth="yes"/>
      <point x="1212" y="-40"/>
      <point x="1416" y="84"/>
      <point x="1416" y="520" type="curve" smooth="yes"/>
      <point x="1416" y="1116" type="line" smooth="yes"/>
      <point x="1416" y="1508"/>
      <point x="1261" y="1629"/>
      <point x="773" y="1629" type="curve" smooth="yes"/>
      <point x="376" y="1629"/>
      <point x="119" y="1551"/>
      <point x="119" y="1071" type="curve" smooth="yes"/>
      <point x="119" y="688"/>
      <point x="229" y="508"/>
      <point x="627" y="508" type="curve"/>
      <point x="854" y="508" type="line"/>
      <point x="854" y="225" type="line"/>
      <point x="775" y="225" type="line"/>
      <point x="696" y="225" type="line"/>
      <point x="696" y="424" type="line"/>
      <point x="165" y="404" type="line"/>
      <point x="163" y="328" type="line" smooth="yes"/>
      <point x="154" y="0"/>
      <point x="481" y="-40"/>
    </contour>
    <contour>
      <point x="765" y="779" type="line"/>
      <point x="679" y="779" type="line"/>
      <point x="679" y="1358" type="line"/>
      <point x="765" y="1358" type="line"/>
      <point x="850" y="1358" type="line"/>
      <point x="850" y="779" type="line"/>
    </contour>
  </outline>
</glyph>
<glyph name="less" format="1">
  <advance width="1376"/>
  <unicode hex="003C"/>
  <outline>
    <contour>
      <point x="1116" y="0" type="line"/>
      <point x="1116" y="504" type="line"/>
      <point x="515" y="727" type="line"/>
      <point x="1116" y="942" type="line"/>
      <point x="1116" y="1447" type="line"/>
      <point x="240" y="1028" type="line"/>
      <point x="240" y="419" type="line"/>
    </contour>
  </outline>
</glyph>
<glyph name="greater" format="1">
  <advance width="1376"/>
  <unicode hex="003E"/>
  <outline>
    <contour>
      <point x="270" y="0" type="line"/>
      <point x="1146" y="419" type="line"/>
      <point x="1146" y="1028" type="line"/>
      <point x="270" y="1447" type="line"/>
      <point x="270" y="942" type="line"/>
      <point x="871" y="727" type="line"/>
      <point x="270" y="504" type="line"/>
    </contour>
  </outline>
</glyph>
<glyph name="question" format="1">
  <advance width="1056"/>
  <unicode hex="003F"/>
  <outline>
    <contour>
      <point x="443" y="510" type="curve" smooth="yes"/>
      <point x="470" y="510"/>
      <point x="500" y="524"/>
      <point x="505" y="567" type="curve" smooth="yes"/>
      <point x="516" y="659"/>
      <point x="553" y="733"/>
      <point x="602" y="798" type="curve" smooth="yes"/>
      <point x="737" y="978"/>
      <point x="961" y="1090"/>
      <point x="961" y="1313" type="curve" smooth="yes"/>
      <point x="961" y="1473"/>
      <point x="863" y="1632"/>
      <point x="528" y="1632" type="curve" smooth="yes"/>
      <point x="432" y="1632"/>
      <point x="310" y="1611"/>
      <point x="157" y="1562" type="curve"/>
      <point x="193" y="1215" type="line"/>
      <point x="276" y="1250"/>
      <point x="339" y="1264"/>
      <point x="387" y="1264" type="curve" smooth="yes"/>
      <point x="490" y="1264"/>
      <point x="529" y="1212"/>
      <point x="529" y="1150" type="curve" smooth="yes"/>
      <point x="529" y="1090"/>
      <point x="483" y="989"/>
      <point x="444" y="886" type="curve" smooth="yes"/>
      <point x="412" y="797"/>
      <point x="382" y="698"/>
      <point x="382" y="582" type="curve" smooth="yes"/>
      <point x="382" y="536"/>
      <point x="402" y="510"/>
    </contour>
    <contour>
      <point x="445" y="-39" type="curve" smooth="yes"/>
      <point x="547" y="-39"/>
      <point x="649" y="31"/>
      <point x="649" y="171" type="curve" smooth="yes"/>
      <point x="649" y="311"/>
      <point x="547" y="381"/>
      <point x="445" y="381" type="curve" smooth="yes"/>
      <point x="343" y="381"/>
      <point x="241" y="311"/>
      <point x="241" y="171" type="curve" smooth="yes"/>
      <point x="241" y="31"/>
      <point x="343" y="-39"/>
    </contour>
  </outline>
</glyph>
<glyph name="at" format="1">
  <advance width="2347"/>
  <unicode hex="0040"/>
  <outline>
    <contour>
      <point x="1242" y="-393" type="curve" smooth="yes"/>
      <point x="1448" y="-393"/>
      <point x="1723" y="-343"/>
      <point x="1855" y="-256" type="curve"/>
      <point x="1786" y="-48" type="line"/>
      <point x="1595" y="-129"/>
      <point x="1404" y="-158"/>
      <point x="1304" y="-158" type="curve" smooth="yes"/>
      <point x="671" y="-158"/>
      <point x="490" y="59"/>
      <point x="490" y="692" type="curve" smooth="yes"/>
      <point x="490" y="1204"/>
      <point x="647" y="1484"/>
      <point x="1234" y="1484" type="curve" smooth="yes"/>
      <point x="1669" y="1484"/>
      <point x="1879" y="1339"/>
      <point x="1879" y="832" type="curve" smooth="yes"/>
      <point x="1859" y="330" type="line"/>
      <point x="1689" y="330" type="line"/>
      <point x="1689" y="837" type="line" smooth="yes"/>
      <point x="1689" y="1146"/>
      <point x="1578" y="1248"/>
      <point x="1220" y="1248" type="curve" smooth="yes"/>
      <point x="940" y="1248"/>
      <point x="741" y="1204"/>
      <point x="745" y="956" type="curve"/>
      <point x="746" y="887" type="line"/>
      <point x="1198" y="887" type="line"/>
      <point x="1198" y="1022" type="line"/>
      <point x="1227.5" y="1022" type="line"/>
      <point x="1257" y="1022" type="line"/>
      <point x="1257" y="788" type="line"/>
      <point x="1032" y="786" type="line" smooth="yes"/>
      <point x="747" y="783"/>
      <point x="688.333" y="605"/>
      <point x="695" y="405" type="curve" smooth="yes"/>
      <point x="702" y="199"/>
      <point x="815" y="113"/>
      <point x="1032" y="113" type="curve" smooth="yes"/>
      <point x="1151" y="113"/>
      <point x="1231" y="173"/>
      <point x="1284" y="239" type="curve"/>
      <point x="1345" y="139"/>
      <point x="1470" y="91"/>
      <point x="1635" y="88" type="curve"/>
      <point x="2128" y="88"/>
      <point x="2235" y="409"/>
      <point x="2235" y="878" type="curve" smooth="yes"/>
      <point x="2235" y="1508"/>
      <point x="1922" y="1741"/>
      <point x="1230" y="1741" type="curve" smooth="yes"/>
      <point x="522" y="1741"/>
      <point x="146" y="1495"/>
      <point x="146" y="687" type="curve" smooth="yes"/>
      <point x="146" y="-177"/>
      <point x="627" y="-393"/>
    </contour>
    <contour>
      <point x="1209.5" y="336" type="line"/>
      <point x="1163" y="336" type="line"/>
      <point x="1163" y="641" type="line"/>
      <point x="1256" y="641" type="line"/>
      <point x="1256" y="336" type="line"/>
    </contour>
  </outline>
</glyph>
<glyph name="A" format="1">
  <advance width="1676"/>
  <unicode hex="0041"/>
  <outline>
    <contour>
      <point x="382" y="1595" type="line"/>
      <point x="90" y="0" type="line"/>
      <point x="676" y="0" type="line"/>
      <point x="731" y="366" type="line"/>
      <point x="945" y="366" type="line"/>
      <point x="999" y="0" type="line"/>
      <point x="1586" y="0" type="line"/>
      <point x="1289" y="1595" type="line"/>
    </contour>
    <contour>
      <point x="927" y="576" type="line"/>
      <point x="749" y="576" type="line"/>
      <point x="826" y="1283" type="line"/>
      <point x="845" y="1283" type="line"/>
    </contour>
    <contour>
      <point x="838" y="1595" type="move" name="top"/>
    </contour>
    <contour>
      <point x="1258" y="0" type="move" name="ogonek"/>
    </contour>
    <contour>
      <point x="838" y="0" type="move" name="bot"/>
    </contour>
  </outline>
</glyph>
<glyph name="B" format="1">
  <advance width="1675"/>
  <unicode hex="0042"/>
  <outline>
    <contour>
      <point x="182" y="0" type="line"/>
      <point x="1025" y="0" type="line" smooth="yes"/>
      <point x="1414" y="0"/>
      <point x="1568" y="91"/>
      <point x="1568" y="460" type="curve" smooth="yes"/>
      <point x="1568" y="647"/>
      <point x="1498" y="824"/>
      <point x="1188" y="860" type="curve"/>
      <point x="1188" y="873" type="line"/>
      <point x="1453" y="901"/>
      <point x="1527" y="1019"/>
      <point x="1527" y="1219" type="curve" smooth="yes"/>
      <point x="1527" y="1244" type="line"/>
      <point x="1515" y="1553"/>
      <point x="1282" y="1595"/>
      <point x="1029" y="1595" type="curve" smooth="yes"/>
      <point x="182" y="1595" type="line"/>
    </contour>
    <contour>
      <point x="786" y="235" type="line"/>
      <point x="786" y="770" type="line"/>
      <point x="866" y="770" type="line"/>
      <point x="959" y="770" type="line"/>
      <point x="959" y="235" type="line"/>
      <point x="866" y="235" type="line"/>
    </contour>
    <contour>
      <point x="786" y="951" type="line"/>
      <point x="786" y="1358" type="line"/>
      <point x="870" y="1358" type="line"/>
      <point x="959" y="1358" type="line"/>
      <point x="959" y="951" type="line"/>
      <point x="870" y="951" type="line"/>
    </contour>
    <contour>
      <point x="847" y="1595" type="move" name="top"/>
    </contour>
  </outline>
</glyph>
<glyph name="C" format="1">
  <advance width="1706"/>
  <unicode hex="0043"/>
  <outline>
    <contour>
      <point x="564" y="1636"/>
      <point x="171" y="1598"/>
      <point x="171" y="1226" type="curve" smooth="yes"/>
      <point x="171" y="798" type="line"/>
      <point x="171" y="370" type="line" smooth="yes"/>
      <point x="171" y="-9"/>
      <point x="592" y="-40"/>
      <point x="867" y="-40" type="curve" smooth="yes"/>
      <point x="1171" y="-40"/>
      <point x="1553" y="-6"/>
      <point x="1553" y="369" type="curve" smooth="yes"/>
      <point x="1553" y="611" type="line"/>
      <point x="949" y="634" type="line"/>
      <point x="949" y="233" type="line"/>
      <point x="862.5" y="233" type="line"/>
      <point x="776" y="233" type="line"/>
      <point x="776" y="794.5" type="line"/>
      <point x="776" y="1356" type="line"/>
      <point x="862.5" y="1356" type="line"/>
      <point x="949" y="1356" type="line"/>
      <point x="949" y="959" type="line"/>
      <point x="1553" y="982" type="line"/>
      <point x="1553" y="1227" type="line" smooth="yes"/>
      <point x="1553" y="1606"/>
      <point x="1179" y="1636"/>
      <point x="864" y="1636" type="curve" smooth="yes"/>
    </contour>
    <contour>
      <point x="851" y="1595" type="move" name="top"/>
    </contour>
    <contour>
      <point x="851" y="0" type="move" name="bot"/>
    </contour>
  </outline>
</glyph>
<glyph name="D" format="1">
  <advance width="1735"/>
  <unicode hex="0044"/>
  <outline>
    <contour>
      <point x="182" y="1595" type="line"/>
      <point x="182" y="0" type="line"/>
      <point x="938" y="0" type="line" smooth="yes"/>
      <point x="1249" y="0"/>
      <point x="1564" y="26"/>
      <point x="1564" y="393" type="curve" smooth="yes"/>
      <point x="1564" y="1204" type="line" smooth="yes"/>
      <point x="1564" y="1559"/>
      <point x="1254" y="1595"/>
      <point x="938" y="1595" type="curve" smooth="yes"/>
    </contour>
    <contour>
      <point x="960" y="949" type="line"/>
      <point x="960" y="540" type="line"/>
      <point x="960" y="235" type="line"/>
      <point x="787" y="235" type="line"/>
      <point x="787" y="1358" type="line"/>
      <point x="960" y="1358" type="line"/>
    </contour>
    <contour>
      <point x="867" y="0" type="move" name="bot"/>
    </contour>
    <contour>
      <point x="867" y="1595" type="move" name="top"/>
    </contour>
    <contour>
      <point x="489" y="805" type="move" name="mid"/>
    </contour>
  </outline>
</glyph>
<glyph name="E" format="1">
  <advance width="1277"/>
  <unicode hex="0045"/>
  <outline>
    <contour>
      <point x="182" y="1595" type="line"/>
      <point x="182" y="0" type="line"/>
      <point x="1127" y="0" type="line"/>
      <point x="1127" y="251" type="line"/>
      <point x="786" y="251" type="line"/>
      <point x="786" y="711" type="line"/>
      <point x="1104" y="711" type="line"/>
      <point x="1104" y="961" type="line"/>
      <point x="786" y="961" type="line"/>
      <point x="786" y="1346" type="line"/>
      <point x="1139" y="1346" type="line"/>
      <point x="1127" y="1595" type="line"/>
    </contour>
    <contour>
      <point x="638" y="0" type="move" name="bot"/>
    </contour>
    <contour>
      <point x="686" y="0" type="move" name="ogonek"/>
    </contour>
    <contour>
      <point x="638" y="1595" type="move" name="top"/>
    </contour>
  </outline>
</glyph>
<glyph name="F" format="1">
  <advance width="1237"/>
  <unicode hex="0046"/>
  <outline>
    <contour>
      <point x="182" y="1595" type="line"/>
      <point x="182" y="0" type="line"/>
      <point x="786" y="0" type="line"/>
      <point x="786" y="705" type="line"/>
      <point x="1104" y="705" type="line"/>
      <point x="1104" y="954" type="line"/>
      <point x="786" y="954" type="line"/>
      <point x="786" y="1346" type="line"/>
      <point x="1137" y="1346" type="line"/>
      <point x="1127" y="1595" type="line"/>
    </contour>
    <contour>
      <point x="630" y="0" type="move" name="bot"/>
    </contour>
    <contour>
      <point x="630" y="1595" type="move" name="top"/>
    </contour>
  </outline>
</glyph>
<glyph name="G" format="1">
  <advance width="1699"/>
  <unicode hex="0047"/>
  <outline>
    <contour>
      <point x="560" y="1617"/>
      <point x="171" y="1582"/>
      <point x="171" y="1208" type="curve" smooth="yes"/>
      <point x="171" y="794" type="line"/>
      <point x="171" y="366" type="line" smooth="yes"/>
      <point x="171" y="15"/>
      <point x="394" y="-22"/>
      <point x="911" y="-22" type="curve" smooth="yes"/>
      <point x="1073" y="-22"/>
      <point x="1433" y="3"/>
      <point x="1553" y="107" type="curve"/>
      <point x="1553" y="769" type="line"/>
      <point x="913" y="769" type="line"/>
      <point x="913" y="600" type="line"/>
      <point x="1061" y="600" type="line"/>
      <point x="1061" y="242" type="line"/>
      <point x="918" y="242" type="line"/>
      <point x="775" y="242" type="line"/>
      <point x="775" y="797" type="line"/>
      <point x="775" y="1338" type="line"/>
      <point x="862" y="1338" type="line"/>
      <point x="948" y="1338" type="line"/>
      <point x="948" y="959" type="line"/>
      <point x="1553" y="979" type="line"/>
      <point x="1553" y="1207" type="line" smooth="yes"/>
      <point x="1553" y="1573"/>
      <point x="1127" y="1617"/>
      <point x="863" y="1617" type="curve" smooth="yes"/>
    </contour>
    <contour>
      <point x="861" y="1595" type="move" name="top"/>
    </contour>
    <contour>
      <point x="861" y="0" type="move" name="bot"/>
    </contour>
  </outline>
</glyph>
<glyph name="H" format="1">
  <advance width="1765"/>
  <unicode hex="0048"/>
  <outline>
    <contour>
      <point x="979" y="1595" type="line"/>
      <point x="979" y="908" type="line"/>
      <point x="786" y="908" type="line"/>
      <point x="786" y="1595" type="line"/>
      <point x="182" y="1595" type="line"/>
      <point x="182" y="0" type="line"/>
      <point x="786" y="0" type="line"/>
      <point x="786" y="688" type="line"/>
      <point x="979" y="688" type="line"/>
      <point x="979" y="0" type="line"/>
      <point x="1583" y="0" type="line"/>
      <point x="1583" y="1595" type="line"/>
    </contour>
    <contour>
      <point x="883" y="1595" type="move" name="top"/>
    </contour>
    <contour>
      <point x="883" y="798" type="move" name="center"/>
    </contour>
    <contour>
      <point x="883" y="0" type="move" name="bot"/>
    </contour>
  </outline>
</glyph>
<glyph name="I" format="1">
  <advance width="976"/>
  <unicode hex="0049"/>
  <outline>
    <contour>
      <point x="186" y="1595" type="line"/>
      <point x="186" y="0" type="line"/>
      <point x="790" y="0" type="line"/>
      <point x="790" y="1595" type="line"/>
    </contour>
    <contour>
      <point x="488" y="1595" type="move" name="top"/>
    </contour>
    <contour>
      <point x="500" y="0" type="move" name="ogonek"/>
    </contour>
    <contour>
      <point x="488" y="0" type="move" name="bot"/>
    </contour>
  </outline>
</glyph>
<glyph name="J" format="1">
  <advance width="1101"/>
  <unicode hex="004A"/>
  <outline>
    <contour>
      <point x="394" y="-159" type="curve" smooth="yes"/>
      <point x="688" y="-159"/>
      <point x="915" y="-44"/>
      <point x="915" y="274" type="curve" smooth="yes"/>
      <point x="915" y="1595" type="line"/>
      <point x="311" y="1595" type="line"/>
      <point x="311" y="259.576" type="line"/>
      <point x="311" y="138" type="line"/>
      <point x="107" y="138" type="line"/>
      <point x="138" y="-134" type="line"/>
      <point x="226" y="-150"/>
      <point x="313" y="-159"/>
    </contour>
    <contour>
      <point x="609" y="1595" type="move" name="top"/>
    </contour>
    <contour>
      <point x="546" y="0" type="move" name="bot"/>
    </contour>
  </outline>
</glyph>
<glyph name="K" format="1">
  <advance width="1800"/>
  <unicode hex="004B"/>
  <outline>
    <contour>
      <point x="1080" y="1595" type="line"/>
      <point x="849" y="995" type="line"/>
      <point x="785" y="829" type="line"/>
      <point x="787" y="1013" type="line"/>
      <point x="787" y="1595" type="line"/>
      <point x="182" y="1595" type="line"/>
      <point x="182" y="0" type="line"/>
      <point x="787" y="0" type="line"/>
      <point x="787" y="564" type="line"/>
      <point x="846" y="695" type="line"/>
      <point x="1098" y="0" type="line"/>
      <point x="1747" y="0" type="line"/>
      <point x="1374" y="840" type="line"/>
      <point x="1699" y="1595" type="line"/>
    </contour>
    <contour>
      <point x="924" y="1595" type="move" name="top"/>
    </contour>
    <contour>
      <point x="924" y="0" type="move" name="bot"/>
    </contour>
  </outline>
</glyph>
<glyph name="L" format="1">
  <advance width="1251"/>
  <unicode hex="004C"/>
  <outline>
    <contour>
      <point x="182" y="1595" type="line"/>
      <point x="182" y="0" type="line"/>
      <point x="1127" y="0" type="line"/>
      <point x="1127" y="241" type="line"/>
      <point x="786" y="241" type="line"/>
      <point x="786" y="1595" type="line"/>
    </contour>
    <contour>
      <point x="560" y="1300" type="move" name="caron.alt"/>
    </contour>
    <contour>
      <point x="626" y="1595" type="move" name="top"/>
    </contour>
    <contour>
      <point x="515" y="857" type="move" name="mid"/>
    </contour>
    <contour>
      <point x="626" y="0" type="move" name="bot"/>
    </contour>
  </outline>
</glyph>
<glyph name="M" format="1">
  <advance width="2026"/>
  <unicode hex="004D"/>
  <outline>
    <contour>
      <point x="1139" y="1595" type="line"/>
      <point x="1012" y="671" type="line"/>
      <point x="999" y="671" type="line"/>
      <point x="872" y="1595" type="line"/>
      <point x="202" y="1595" type="line"/>
      <point x="118" y="0" type="line"/>
      <point x="579" y="0" type="line"/>
      <point x="635" y="958" type="line"/>
      <point x="649" y="958" type="line"/>
      <point x="794" y="-1" type="line"/>
      <point x="1221" y="-1" type="line"/>
      <point x="1378" y="958" type="line"/>
      <point x="1392" y="958" type="line"/>
      <point x="1448" y="0" type="line"/>
      <point x="1894" y="0" type="line"/>
      <point x="1810" y="1595" type="line"/>
    </contour>
    <contour>
      <point x="1006" y="0" type="move" name="bot"/>
    </contour>
    <contour>
      <point x="1006" y="1595" type="move" name="top"/>
    </contour>
  </outline>
</glyph>
<glyph name="N" format="1">
  <advance width="1756"/>
  <unicode hex="004E"/>
  <outline>
    <contour>
      <point x="1130" y="1595" type="line"/>
      <point x="1130" y="834" type="line"/>
      <point x="699" y="1595" type="line"/>
      <point x="182" y="1595" type="line"/>
      <point x="182" y="0" type="line"/>
      <point x="630" y="0" type="line"/>
      <point x="630" y="711" type="line"/>
      <point x="1035" y="0" type="line"/>
      <point x="1574" y="0" type="line"/>
      <point x="1574" y="1595" type="line"/>
    </contour>
    <contour>
      <point x="878" y="1595" type="move" name="top"/>
    </contour>
    <contour>
      <point x="878" y="0" type="move" name="bot"/>
    </contour>
  </outline>
</glyph>
<glyph name="O" format="1">
  <advance width="1724"/>
  <unicode hex="004F"/>
  <outline>
    <contour>
      <point x="863" y="252" type="line"/>
      <point x="776" y="252" type="line"/>
      <point x="776" y="798.5" type="line"/>
      <point x="776" y="1344" type="line"/>
      <point x="863" y="1344" type="line"/>
      <point x="949" y="1344" type="line"/>
      <point x="949" y="798.5" type="line"/>
      <point x="949" y="252" type="line"/>
    </contour>
    <contour>
      <point x="859" y="-22" type="curve"/>
      <point x="1161" y="-21"/>
      <point x="1553" y="8"/>
      <point x="1553" y="387" type="curve" smooth="yes"/>
      <point x="1553" y="1208" type="line" smooth="yes"/>
      <point x="1553" y="1585"/>
      <point x="1131" y="1617"/>
      <point x="859" y="1617" type="curve" smooth="yes"/>
      <point x="558" y="1617"/>
      <point x="171" y="1580"/>
      <point x="171" y="1208" type="curve" smooth="yes"/>
      <point x="171" y="387" type="line" smooth="yes"/>
      <point x="171" y="6"/>
      <point x="539" y="-22"/>
    </contour>
    <contour>
      <point x="862" y="1595" type="move" name="top"/>
    </contour>
    <contour>
      <point x="862" y="0" type="move" name="bot"/>
    </contour>
    <contour>
      <point x="991" y="0" type="move" name="ogonek"/>
    </contour>
  </outline>
</glyph>
<glyph name="P" format="1">
  <advance width="1684"/>
  <unicode hex="0050"/>
  <outline>
    <contour>
      <point x="182" y="0" type="line"/>
      <point x="786" y="0" type="line"/>
      <point x="786" y="402" type="line"/>
      <point x="938" y="402" type="line" smooth="yes"/>
      <point x="1248" y="402"/>
      <point x="1563" y="428"/>
      <point x="1563" y="793" type="curve" smooth="yes"/>
      <point x="1563" y="1204" type="line" smooth="yes"/>
      <point x="1563" y="1559"/>
      <point x="1253" y="1595"/>
      <point x="937" y="1595" type="curve" smooth="yes"/>
      <point x="182" y="1595" type="line"/>
    </contour>
    <contour>
      <point x="785" y="628" type="line"/>
      <point x="785" y="1362" type="line"/>
      <point x="872" y="1362" type="line"/>
      <point x="958" y="1362" type="line"/>
      <point x="958" y="995" type="line"/>
      <point x="958" y="628" type="line"/>
      <point x="872" y="628" type="line"/>
    </contour>
    <contour>
      <point x="855" y="0" type="move" name="bot"/>
    </contour>
    <contour>
      <point x="855" y="1595" type="move" name="top"/>
    </contour>
  </outline>
</glyph>
<glyph name="Q" format="1">
  <advance width="1724"/>
  <unicode hex="0051"/>
  <outline>
    <contour>
      <point x="703" y="84" type="line"/>
      <point x="1051" y="-429" type="line"/>
      <point x="1366" y="-252" type="line"/>
      <point x="1120" y="128" type="line"/>
    </contour>
    <component base="O"/>
  </outline>
</glyph>
<glyph name="R" format="1">
  <advance width="1731"/>
  <unicode hex="0052"/>
  <outline>
    <contour>
      <point x="182" y="0" type="line"/>
      <point x="786" y="0" type="line"/>
      <point x="786" y="649" type="line"/>
      <point x="959" y="649" type="line"/>
      <point x="959" y="557" type="line"/>
      <point x="959" y="0" type="line"/>
      <point x="1565" y="0" type="line"/>
      <point x="1565" y="437" type="line" smooth="yes"/>
      <point x="1565" y="609"/>
      <point x="1472" y="754"/>
      <point x="1189" y="786" type="curve"/>
      <point x="1189" y="792" type="line"/>
      <point x="1486" y="821"/>
      <point x="1549" y="968"/>
      <point x="1549" y="1190" type="curve" smooth="yes"/>
      <point x="1549" y="1502"/>
      <point x="1384" y="1595"/>
      <point x="1095" y="1595" type="curve" smooth="yes"/>
      <point x="182" y="1595" type="line"/>
    </contour>
    <contour>
      <point x="786" y="881" type="line"/>
      <point x="786" y="1358" type="line"/>
      <point x="959" y="1358" type="line"/>
      <point x="959" y="1120" type="line"/>
      <point x="959" y="881" type="line"/>
    </contour>
    <contour>
      <point x="854" y="1595" type="move" name="top"/>
    </contour>
    <contour>
      <point x="854" y="0" type="move" name="bot"/>
    </contour>
  </outline>
</glyph>
<glyph name="S" format="1">
  <advance width="1674"/>
  <unicode hex="0053"/>
  <outline>
    <contour>
      <point x="836" y="-22" type="curve" smooth="yes"/>
      <point x="1365" y="-22"/>
      <point x="1514" y="99"/>
      <point x="1514" y="542" type="curve" smooth="yes"/>
      <point x="1514" y="869.78"/>
      <point x="1297" y="981"/>
      <point x="1049" y="1029" type="curve" smooth="yes"/>
      <point x="858" y="1066" type="line" smooth="yes"/>
      <point x="737" y="1089"/>
      <point x="735" y="1103"/>
      <point x="735" y="1143" type="curve" smooth="yes"/>
      <point x="733" y="1340" type="line"/>
      <point x="820" y="1340" type="line"/>
      <point x="906" y="1340" type="line"/>
      <point x="906" y="1195" type="line"/>
      <point x="1442" y="1225" type="line"/>
      <point x="1442" y="1589"/>
      <point x="1260" y="1617"/>
      <point x="806" y="1617" type="curve" smooth="yes"/>
      <point x="338" y="1617"/>
      <point x="156" y="1532"/>
      <point x="156" y="1111" type="curve" smooth="yes"/>
      <point x="156" y="822.441"/>
      <point x="284" y="718"/>
      <point x="548" y="649" type="curve" smooth="yes"/>
      <point x="790" y="586" type="line" smooth="yes"/>
      <point x="902" y="557"/>
      <point x="908" y="549"/>
      <point x="908" y="496" type="curve" smooth="yes"/>
      <point x="908" y="252" type="line"/>
      <point x="822" y="252" type="line"/>
      <point x="735" y="252" type="line"/>
      <point x="735" y="468" type="line"/>
      <point x="162" y="428" type="line"/>
      <point x="162" y="19"/>
      <point x="350" y="-22"/>
    </contour>
    <contour>
      <point x="827" y="1595" type="move" name="top"/>
    </contour>
    <contour>
      <point x="827" y="0" type="move" name="bot"/>
    </contour>
  </outline>
</glyph>
<glyph name="T" format="1">
  <advance width="1353"/>
  <unicode hex="0054"/>
  <outline>
    <contour>
      <point x="20" y="1595" type="line"/>
      <point x="20" y="1326" type="line"/>
      <point x="373" y="1326" type="line"/>
      <point x="373" y="0" type="line"/>
      <point x="977" y="0" type="line"/>
      <point x="977" y="1326" type="line"/>
      <point x="1333" y="1326" type="line"/>
      <point x="1333" y="1595" type="line"/>
    </contour>
    <contour>
      <point x="677" y="0" type="move" name="bot"/>
    </contour>
    <contour>
      <point x="677" y="1595" type="move" name="top"/>
    </contour>
    <contour>
      <point x="677" y="837" type="move" name="mid"/>
    </contour>
  </outline>
</glyph>
<glyph name="U" format="1">
  <advance width="1694"/>
  <unicode hex="0055"/>
  <outline>
    <contour>
      <point x="156" y="1595" type="line"/>
      <point x="156" y="388" type="line" smooth="yes"/>
      <point x="156" y="10"/>
      <point x="568" y="-22"/>
      <point x="845" y="-22" type="curve" smooth="yes"/>
      <point x="1147" y="-22"/>
      <point x="1538" y="13"/>
      <point x="1538" y="387" type="curve" smooth="yes"/>
      <point x="1538" y="1594" type="line"/>
      <point x="933" y="1594" type="line"/>
      <point x="933" y="251" type="line"/>
      <point x="847" y="251" type="line"/>
      <point x="760" y="251" type="line"/>
      <point x="760" y="1595" type="line"/>
    </contour>
    <contour>
      <point x="847" y="1595" type="move" name="top"/>
    </contour>
    <contour>
      <point x="968" y="0" type="move" name="ogonek"/>
    </contour>
    <contour>
      <point x="847" y="0" type="move" name="bot"/>
    </contour>
  </outline>
</glyph>
<glyph name="V" format="1">
  <advance width="1628"/>
  <unicode hex="0056"/>
  <outline>
    <contour>
      <point x="958" y="1595" type="line"/>
      <point x="820" y="412" type="line"/>
      <point x="809" y="412" type="line"/>
      <point x="663" y="1595" type="line"/>
      <point x="72" y="1595" type="line"/>
      <point x="390" y="0" type="line"/>
      <point x="1232" y="0" type="line"/>
      <point x="1550" y="1595" type="line"/>
    </contour>
  </outline>
</glyph>
<glyph name="W" format="1">
  <advance width="2057"/>
  <unicode hex="0057"/>
  <outline>
    <contour>
      <point x="1512" y="1595" type="line"/>
      <point x="1405" y="626" type="line"/>
      <point x="1391" y="624" type="line"/>
      <point x="1272" y="1595" type="line"/>
      <point x="793" y="1595" type="line"/>
      <point x="677" y="624" type="line"/>
      <point x="664" y="624" type="line"/>
      <point x="589" y="1595" type="line"/>
      <point x="26" y="1595" type="line"/>
      <point x="235" y="0" type="line"/>
      <point x="857" y="0" type="line"/>
      <point x="1004" y="927" type="line"/>
      <point x="1015" y="927" type="line"/>
      <point x="1162" y="0" type="line"/>
      <point x="1804" y="0" type="line"/>
      <point x="2023" y="1595" type="line"/>
    </contour>
    <contour>
      <point x="1025" y="1595" type="move" name="top"/>
    </contour>
    <contour>
      <point x="1025" y="0" type="move" name="bot"/>
    </contour>
  </outline>
</glyph>
<glyph name="X" format="1">
  <advance width="1628"/>
  <unicode hex="0058"/>
  <outline>
    <contour>
      <point x="1052" y="1595" type="line"/>
      <point x="714" y="961" type="line"/>
      <point x="714" y="961"/>
      <point x="544" y="942"/>
      <point x="544" y="942" type="curve"/>
      <point x="7" y="0" type="line"/>
      <point x="555" y="0" type="line"/>
      <point x="928" y="654" type="line"/>
      <point x="928" y="654"/>
      <point x="1113" y="682"/>
      <point x="1113" y="682" type="curve"/>
      <point x="1603" y="1595" type="line"/>
    </contour>
    <contour>
      <point x="70" y="1595" type="line"/>
      <point x="70" y="1595"/>
      <point x="1038" y="0"/>
      <point x="1038" y="0" type="curve"/>
      <point x="1593" y="0" type="line"/>
      <point x="1593" y="0"/>
      <point x="622" y="1595"/>
      <point x="622" y="1595" type="curve"/>
    </contour>
  </outline>
</glyph>
<glyph name="Y" format="1">
  <advance width="1560"/>
  <unicode hex="0059"/>
  <outline>
    <contour>
      <point x="970" y="1595" type="line"/>
      <point x="784" y="955" type="line"/>
      <point x="775" y="955" type="line"/>
      <point x="594" y="1595" type="line"/>
      <point x="34" y="1595" type="line"/>
      <point x="479" y="539" type="line"/>
      <point x="479" y="0" type="line"/>
      <point x="1084" y="0" type="line"/>
      <point x="1084" y="529" type="line"/>
      <point x="1526" y="1595" type="line"/>
    </contour>
    <contour>
      <point x="780" y="1595" type="move" name="top"/>
    </contour>
    <contour>
      <point x="780" y="0" type="move" name="bot"/>
    </contour>
  </outline>
</glyph>
<glyph name="Z" format="1">
  <advance width="1282"/>
  <unicode hex="005A"/>
  <outline>
    <contour>
      <point x="153" y="1595" type="line"/>
      <point x="169" y="1304" type="line"/>
      <point x="525" y="1304" type="line"/>
      <point x="180" y="266" type="line"/>
      <point x="180" y="0" type="line"/>
      <point x="1157" y="0" type="line"/>
      <point x="1167" y="294" type="line"/>
      <point x="791" y="294" type="line"/>
      <point x="1110" y="1342" type="line"/>
      <point x="1117" y="1595" type="line"/>
    </contour>
    <contour>
      <point x="643" y="1595" type="move" name="top"/>
    </contour>
    <contour>
      <point x="643" y="0" type="move" name="bot"/>
    </contour>
  </outline>
</glyph>
<glyph name="backslash" format="1">
  <advance width="1238"/>
  <unicode hex="005C"/>
  <outline>
    <contour>
      <point x="194" y="1595" type="line"/>
      <point x="545" y="0" type="line"/>
      <point x="1020" y="0" type="line"/>
      <point x="668" y="1595" type="line"/>
    </contour>
  </outline>
</glyph>
<glyph name="bracketright" format="1">
  <advance width="1621"/>
  <unicode hex="005D"/>
  <outline>
    <contour>
      <point x="393" y="1819" type="line"/>
      <point x="393" y="1578" type="line"/>
      <point x="734" y="1578" type="line"/>
      <point x="734" y="-77" type="line"/>
      <point x="393" y="-77" type="line"/>
      <point x="393" y="-319" type="line"/>
      <point x="1368" y="-319" type="line"/>
      <point x="1368" y="1819" type="line"/>
    </contour>
  </outline>
</glyph>
<glyph name="asciicircum" format="1">
  <advance width="1379"/>
  <unicode hex="005E"/>
  <outline>
    <contour>
      <point x="687" y="1577" type="curve"/>
      <point x="589" y="1576"/>
      <point x="473" y="1544"/>
      <point x="423" y="1434" type="curve" smooth="yes"/>
      <point x="59" y="635" type="line" smooth="yes"/>
      <point x="-11" y="482"/>
      <point x="205" y="347"/>
      <point x="306" y="515" type="curve" smooth="yes"/>
      <point x="687" y="1147" type="line"/>
      <point x="1068" y="515" type="line" smooth="yes"/>
      <point x="1169" y="347"/>
      <point x="1385" y="482"/>
      <point x="1315" y="635" type="curve" smooth="yes"/>
      <point x="951" y="1434" type="line" smooth="yes"/>
      <point x="901" y="1544"/>
      <point x="785" y="1576"/>
    </contour>
  </outline>
</glyph>
<glyph name="underscore" format="1">
  <advance width="901"/>
  <unicode hex="005F"/>
  <outline>
    <contour>
      <point x="6" y="-84" type="line"/>
      <point x="6" y="-345" type="line"/>
      <point x="895" y="-345" type="line"/>
      <point x="895" y="-84" type="line"/>
    </contour>
  </outline>
</glyph>
<glyph name="grave" format="1">
  <advance width="1287"/>
  <unicode hex="0060"/>
  <outline>
    <contour>
      <point x="435" y="2030"/>
      <point x="364" y="1946"/>
      <point x="364" y="1852" type="curve" smooth="yes"/>
      <point x="364" y="1787"/>
      <point x="399" y="1717"/>
      <point x="480" y="1670" type="curve" smooth="yes"/>
      <point x="584" y="1610"/>
      <point x="871" y="1538"/>
      <point x="1076" y="1476" type="curve" smooth="yes"/>
      <point x="1106.25" y="1465"/>
      <point x="1134.75" y="1471.07"/>
      <point x="1152.62" y="1484.62" type="curve" smooth="yes"/>
      <point x="1178.12" y="1503.96"/>
      <point x="1180.33" y="1542.08"/>
      <point x="1137" y="1580" type="curve" smooth="yes"/>
      <point x="974" y="1729"/>
      <point x="764" y="1935"/>
      <point x="663" y="1993" type="curve" smooth="yes"/>
      <point x="618" y="2019"/>
      <point x="576" y="2030"/>
      <point x="538" y="2030" type="curve" smooth="yes"/>
    </contour>
    <contour>
      <point x="916" y="1300" type="move" name="_top"/>
    </contour>
  </outline>
</glyph>
<glyph name="a" format="1">
  <advance width="1593"/>
  <unicode hex="0061"/>
  <outline>
    <contour>
      <point x="552" y="1322"/>
      <point x="185" y="1304"/>
      <point x="185" y="1005" type="curve" smooth="yes"/>
      <point x="185" y="966"/>
      <point x="190" y="930"/>
      <point x="196" y="895" type="curve"/>
      <point x="721" y="915" type="line"/>
      <point x="721" y="1106" type="line"/>
      <point x="790.5" y="1106" type="line"/>
      <point x="860" y="1106" type="line"/>
      <point x="860" y="783" type="line"/>
      <point x="606" y="754" type="line" smooth="yes"/>
      <point x="298" y="720"/>
      <point x="129" y="682"/>
      <point x="129" y="377" type="curve" smooth="yes"/>
      <point x="129" y="96"/>
      <point x="281" y="-22"/>
      <point x="556" y="-22" type="curve" smooth="yes"/>
      <point x="720" y="-22"/>
      <point x="822" y="38"/>
      <point x="883" y="139" type="curve"/>
      <point x="939" y="1" type="line"/>
      <point x="1430" y="1" type="line"/>
      <point x="1430" y="1"/>
      <point x="1430" y="952"/>
      <point x="1430" y="952" type="curve" smooth="yes"/>
      <point x="1430" y="1303"/>
      <point x="1096" y="1322"/>
      <point x="789" y="1322" type="curve" smooth="yes"/>
    </contour>
    <contour>
      <point x="860" y="206" type="line"/>
      <point x="777" y="206" type="line"/>
      <point x="694" y="206" type="line"/>
      <point x="694" y="606" type="line"/>
      <point x="860" y="636" type="line"/>
    </contour>
    <contour>
      <point x="790" y="1300" type="move" name="top"/>
    </contour>
    <contour>
      <point x="1169" y="0" type="move" name="ogonek"/>
    </contour>
    <contour>
      <point x="790" y="0" type="move" name="bot"/>
    </contour>
  </outline>
</glyph>
<glyph name="b" format="1">
  <advance width="1640"/>
  <unicode hex="0062"/>
  <outline>
    <contour>
      <point x="175" y="1638" type="line"/>
      <point x="175" y="0" type="line"/>
      <point x="695" y="0" type="line"/>
      <point x="732" y="114" type="line"/>
      <point x="792" y="25"/>
      <point x="934" y="-22"/>
      <point x="1079" y="-22" type="curve" smooth="yes"/>
      <point x="1365" y="-22"/>
      <point x="1504" y="106"/>
      <point x="1504" y="377" type="curve" smooth="yes"/>
      <point x="1504" y="940" type="line" smooth="yes"/>
      <point x="1504" y="1205"/>
      <point x="1359" y="1322"/>
      <point x="1082" y="1322" type="curve" smooth="yes"/>
      <point x="932" y="1322"/>
      <point x="813" y="1292"/>
      <point x="746" y="1215" type="curve"/>
      <point x="746" y="1638" type="line"/>
    </contour>
    <contour>
      <point x="830" y="199" type="line"/>
      <point x="746" y="199" type="line"/>
      <point x="746" y="1105" type="line"/>
      <point x="830" y="1105" type="line"/>
      <point x="916" y="1105" type="line"/>
      <point x="916" y="199" type="line"/>
    </contour>
    <contour>
      <point x="816" y="1300" type="move" name="top"/>
    </contour>
  </outline>
</glyph>
<glyph name="c" format="1">
  <advance width="1595"/>
  <unicode hex="0063"/>
  <outline>
    <contour>
      <point x="504" y="1322"/>
      <point x="136" y="1310"/>
      <point x="136" y="955" type="curve" smooth="yes"/>
      <point x="136" y="355" type="line" smooth="yes"/>
      <point x="136" y="-1"/>
      <point x="484" y="-22"/>
      <point x="793" y="-22" type="curve" smooth="yes"/>
      <point x="1095" y="-22"/>
      <point x="1449" y="-10"/>
      <point x="1447" y="352" type="curve" smooth="yes"/>
      <point x="1446" y="513" type="line"/>
      <point x="875" y="529" type="line"/>
      <point x="875" y="199" type="line"/>
      <point x="792" y="199" type="line"/>
      <point x="708" y="199" type="line"/>
      <point x="708" y="1105" type="line"/>
      <point x="792" y="1105" type="line"/>
      <point x="875" y="1105" type="line"/>
      <point x="875" y="781" type="line"/>
      <point x="1446" y="791" type="line"/>
      <point x="1446" y="978" type="line" smooth="yes"/>
      <point x="1446" y="1326"/>
      <point x="1054" y="1322"/>
      <point x="799" y="1322" type="curve" smooth="yes"/>
    </contour>
    <contour>
      <point x="786" y="1300" type="move" name="top"/>
    </contour>
    <contour>
      <point x="786" y="0" type="move" name="bot"/>
    </contour>
  </outline>
</glyph>
<glyph name="d" format="1">
  <advance width="1638"/>
  <unicode hex="0064"/>
  <outline>
    <contour>
      <point x="892" y="1638" type="line"/>
      <point x="892" y="1215" type="line"/>
      <point x="825" y="1292"/>
      <point x="719" y="1322"/>
      <point x="569" y="1322" type="curve" smooth="yes"/>
      <point x="279" y="1322"/>
      <point x="136" y="1203"/>
      <point x="136" y="940" type="curve" smooth="yes"/>
      <point x="136" y="377" type="line" smooth="yes"/>
      <point x="136" y="106"/>
      <point x="275" y="-22"/>
      <point x="571" y="-22" type="curve" smooth="yes"/>
      <point x="717" y="-22"/>
      <point x="844" y="26"/>
      <point x="906" y="114" type="curve"/>
      <point x="943" y="0" type="line"/>
      <point x="1463" y="0" type="line"/>
      <point x="1463" y="1638" type="line"/>
    </contour>
    <contour>
      <point x="808" y="199" type="line"/>
      <point x="724" y="199" type="line"/>
      <point x="724" y="1105" type="line"/>
      <point x="808" y="1105" type="line"/>
      <point x="891" y="1105" type="line"/>
      <point x="891" y="199" type="line"/>
    </contour>
    <contour>
      <point x="1166" y="1471" type="move" name="mid"/>
    </contour>
    <contour>
      <point x="1267" y="1300" type="move" name="caron.alt"/>
    </contour>
    <contour>
      <point x="571" y="1442" type="move" name="top"/>
    </contour>
  </outline>
</glyph>
<glyph name="e" format="1">
  <advance width="1594"/>
  <unicode hex="0065"/>
  <outline>
    <contour>
      <point x="793" y="-22" type="curve" smooth="yes"/>
      <point x="1235" y="-22"/>
      <point x="1454" y="74"/>
      <point x="1454" y="380" type="curve" smooth="yes"/>
      <point x="1454" y="412"/>
      <point x="1451" y="445"/>
      <point x="1446" y="483" type="curve"/>
      <point x="875" y="483" type="line"/>
      <point x="875" y="199" type="line"/>
      <point x="792" y="199" type="line"/>
      <point x="708" y="199" type="line"/>
      <point x="708" y="604" type="line"/>
      <point x="1446" y="604" type="line"/>
      <point x="1446" y="954" type="line" smooth="yes"/>
      <point x="1446" y="1309"/>
      <point x="1084" y="1322"/>
      <point x="791" y="1322" type="curve" smooth="yes"/>
      <point x="505" y="1322"/>
      <point x="136" y="1306"/>
      <point x="136" y="953" type="curve" smooth="yes"/>
      <point x="136" y="353" type="line" smooth="yes"/>
      <point x="136" y="-11"/>
      <point x="489" y="-22"/>
    </contour>
    <contour>
      <point x="708" y="777" type="line"/>
      <point x="708" y="1105" type="line"/>
      <point x="792" y="1105" type="line"/>
      <point x="876" y="1105" type="line"/>
      <point x="876" y="777" type="line"/>
    </contour>
    <contour>
      <point x="787" y="0" type="move" name="bot"/>
    </contour>
    <contour>
      <point x="907" y="0" type="move" name="ogonek"/>
    </contour>
    <contour>
      <point x="787" y="1300" type="move" name="top"/>
    </contour>
  </outline>
</glyph>
<glyph name="f" format="1">
  <advance width="1237"/>
  <unicode hex="0066"/>
  <outline>
    <contour>
      <point x="471" y="1731"/>
      <point x="289" y="1624"/>
      <point x="289" y="1300" type="curve"/>
      <point x="82" y="1300" type="line"/>
      <point x="82" y="1098" type="line"/>
      <point x="289" y="1098" type="line"/>
      <point x="289" y="0" type="line"/>
      <point x="860" y="0" type="line"/>
      <point x="860" y="1098" type="line"/>
      <point x="1174" y="1098" type="line"/>
      <point x="1174" y="1300" type="line"/>
      <point x="860" y="1300" type="line"/>
      <point x="860" y="1477" type="line"/>
      <point x="948.701" y="1477" type="line"/>
      <point x="1165" y="1477" type="line"/>
      <point x="1165" y="1683" type="line"/>
      <point x="1047" y="1719"/>
      <point x="921" y="1731"/>
      <point x="799" y="1731" type="curve" smooth="yes"/>
    </contour>
    <contour>
      <point x="623" y="1300" type="move" name="top"/>
    </contour>
  </outline>
</glyph>
<glyph name="g" format="1">
  <advance width="1616"/>
  <unicode hex="0067"/>
  <outline>
    <contour>
      <point x="288" y="1322"/>
      <point x="142" y="1196"/>
      <point x="142" y="927" type="curve" smooth="yes"/>
      <point x="142" y="482" type="line" smooth="yes"/>
      <point x="142" y="214"/>
      <point x="291" y="91"/>
      <point x="562" y="91" type="curve" smooth="yes"/>
      <point x="701" y="91"/>
      <point x="831" y="125"/>
      <point x="893" y="205" type="curve"/>
      <point x="893" y="-60" type="line"/>
      <point x="848" y="-87"/>
      <point x="758" y="-97"/>
      <point x="658" y="-97" type="curve" smooth="yes"/>
      <point x="534" y="-97"/>
      <point x="395" y="-81"/>
      <point x="312" y="-58" type="curve"/>
      <point x="255" y="-349" type="line"/>
      <point x="378" y="-383"/>
      <point x="532" y="-410"/>
      <point x="732" y="-410" type="curve" smooth="yes"/>
      <point x="1224" y="-410"/>
      <point x="1451" y="-222"/>
      <point x="1451" y="198" type="curve" smooth="yes"/>
      <point x="1451" y="1299" type="line"/>
      <point x="940" y="1299" type="line"/>
      <point x="904" y="1187" type="line"/>
      <point x="838" y="1276"/>
      <point x="721" y="1321"/>
      <point x="565" y="1322" type="curve"/>
    </contour>
    <contour>
      <point x="796.5" y="316" type="line"/>
      <point x="713" y="316" type="line"/>
      <point x="713" y="1104" type="line"/>
      <point x="796.5" y="1104" type="line"/>
      <point x="880" y="1104" type="line"/>
      <point x="880" y="316" type="line"/>
    </contour>
    <contour>
      <point x="800" y="1300" type="move" name="top"/>
    </contour>
    <contour>
      <point x="800" y="0" type="move" name="bot"/>
    </contour>
  </outline>
</glyph>
<glyph name="h" format="1">
  <advance width="1647"/>
  <unicode hex="0068"/>
  <outline>
    <contour>
      <point x="175" y="1638" type="line"/>
      <point x="175" y="0" type="line"/>
      <point x="746" y="0" type="line"/>
      <point x="746" y="1105" type="line"/>
      <point x="830" y="1105" type="line"/>
      <point x="913" y="1105" type="line"/>
      <point x="913" y="0" type="line"/>
      <point x="1484" y="0" type="line"/>
      <point x="1484" y="945" type="line" smooth="yes"/>
      <point x="1484" y="1206"/>
      <point x="1336" y="1322"/>
      <point x="1067" y="1322" type="curve" smooth="yes"/>
      <point x="934" y="1322"/>
      <point x="803" y="1288"/>
      <point x="746" y="1210" type="curve"/>
      <point x="746" y="1638" type="line"/>
    </contour>
    <contour>
      <point x="819" y="0" type="move" name="bot"/>
    </contour>
    <contour>
      <point x="1092" y="1554" type="move" name="top"/>
    </contour>
    <contour>
      <point x="819" y="1300" type="move" name="mid"/>
    </contour>
    <contour>
      <point x="464" y="1477" type="move" name="bar"/>
    </contour>
    <contour>
      <point x="819" y="650" type="move" name="center"/>
    </contour>
  </outline>
</glyph>
<glyph name="i" format="1">
  <advance width="876"/>
  <unicode hex="0069"/>
  <outline>
    <component base="dotlessi" xOffset="-46"/>
    <component base="dotaccent" xOffset="-199"/>
    <contour>
      <point x="276" y="0" type="move" name="ogonek"/>
    </contour>
  </outline>
</glyph>
<glyph name="k" format="1">
  <advance width="1636"/>
  <unicode hex="006B"/>
  <outline>
    <contour>
      <point x="175" y="1638" type="line"/>
      <point x="175" y="0" type="line"/>
      <point x="746" y="0" type="line"/>
      <point x="746" y="478" type="line"/>
      <point x="789" y="555" type="line"/>
      <point x="1018" y="0" type="line"/>
      <point x="1648" y="0" type="line"/>
      <point x="1276" y="690" type="line"/>
      <point x="1621" y="1300" type="line"/>
      <point x="1035" y="1300" type="line"/>
      <point x="822" y="940" type="line"/>
      <point x="746" y="798" type="line"/>
      <point x="746" y="979" type="line"/>
      <point x="746" y="1638" type="line"/>
    </contour>
    <contour>
      <point x="834" y="0" type="move" name="bot"/>
    </contour>
    <contour>
      <point x="834" y="0" type="move" name="bottom"/>
    </contour>
    <contour>
      <point x="1129" y="1500" type="move" name="top"/>
    </contour>
  </outline>
</glyph>
<glyph name="l" format="1">
  <advance width="966"/>
  <unicode hex="006C"/>
  <outline>
    <contour>
      <point x="205" y="1638" type="line"/>
      <point x="205" y="0" type="line"/>
      <point x="776" y="0" type="line"/>
      <point x="776" y="1638" type="line"/>
    </contour>
    <contour>
      <point x="593" y="1300" type="move" name="caron.alt"/>
    </contour>
    <contour>
      <point x="480" y="0" type="move" name="bot"/>
    </contour>
    <contour>
      <point x="503" y="1595" type="move" name="top"/>
    </contour>
    <contour>
      <point x="490" y="990" type="move" name="mid"/>
    </contour>
    <contour>
      <point x="480" y="0" type="move" name="bottom"/>
    </contour>
  </outline>
</glyph>
<glyph name="m" format="1">
  <advance width="2346"/>
  <unicode hex="006D"/>
  <outline>
    <contour>
      <point x="1610" y="1322"/>
      <point x="1483" y="1281"/>
      <point x="1421" y="1191" type="curve"/>
      <point x="1353" y="1274"/>
      <point x="1238" y="1322"/>
      <point x="1082" y="1322" type="curve" smooth="yes"/>
      <point x="933" y="1322"/>
      <point x="789" y="1276"/>
      <point x="724" y="1188" type="curve"/>
      <point x="687" y="1300" type="line"/>
      <point x="175" y="1300" type="line"/>
      <point x="175" y="0" type="line"/>
      <point x="738" y="0" type="line"/>
      <point x="738" y="1105" type="line"/>
      <point x="821.5" y="1105" type="line"/>
      <point x="905" y="1105" type="line"/>
      <point x="905" y="0" type="line"/>
      <point x="1462" y="0" type="line"/>
      <point x="1462" y="1001" type="line" smooth="yes"/>
      <point x="1462" y="1037"/>
      <point x="1461" y="1072"/>
      <point x="1455" y="1105" type="curve"/>
      <point x="1541.5" y="1105" type="line"/>
      <point x="1628" y="1105" type="line"/>
      <point x="1628" y="0" type="line"/>
      <point x="2191" y="0" type="line"/>
      <point x="2191" y="944" type="line" smooth="yes"/>
      <point x="2191" y="1202"/>
      <point x="2035" y="1322"/>
      <point x="1768" y="1322" type="curve" smooth="yes"/>
    </contour>
    <contour>
      <point x="1177" y="0" type="move" name="bot"/>
    </contour>
    <contour>
      <point x="1177" y="1300" type="move" name="top"/>
    </contour>
  </outline>
</glyph>
<glyph name="n" format="1">
  <advance width="1639"/>
  <unicode hex="006E"/>
  <outline>
    <contour>
      <point x="913" y="1322"/>
      <point x="781" y="1271"/>
      <point x="722" y="1188" type="curve"/>
      <point x="685" y="1300" type="line"/>
      <point x="175" y="1300" type="line"/>
      <point x="175" y="0" type="line"/>
      <point x="746" y="0" type="line"/>
      <point x="746" y="1105" type="line"/>
      <point x="829.5" y="1105" type="line"/>
      <point x="913" y="1105" type="line"/>
      <point x="913" y="0" type="line"/>
      <point x="1484" y="0" type="line"/>
      <point x="1484" y="944" type="line" smooth="yes"/>
      <point x="1484" y="1195"/>
      <point x="1336" y="1321"/>
      <point x="1063" y="1322" type="curve" smooth="yes"/>
    </contour>
    <contour>
      <point x="814" y="1300" type="move" name="top"/>
    </contour>
    <contour>
      <point x="814" y="0" type="move" name="bot"/>
    </contour>
  </outline>
</glyph>
<glyph name="o" format="1">
  <advance width="1581"/>
  <unicode hex="006F"/>
  <outline>
    <contour>
      <point x="498" y="1322"/>
      <point x="136" y="1300"/>
      <point x="136" y="953" type="curve" smooth="yes"/>
      <point x="136" y="348" type="line" smooth="yes"/>
      <point x="136" y="-12"/>
      <point x="476" y="-22"/>
      <point x="794" y="-22" type="curve" smooth="yes"/>
      <point x="1099" y="-22"/>
      <point x="1445" y="-22"/>
      <point x="1445" y="347" type="curve" smooth="yes"/>
      <point x="1445" y="952" type="line" smooth="yes"/>
      <point x="1445" y="1296"/>
      <point x="1114" y="1322"/>
      <point x="795" y="1322" type="curve" smooth="yes"/>
    </contour>
    <contour>
      <point x="790" y="228" type="line"/>
      <point x="707" y="228" type="line"/>
      <point x="707" y="1105" type="line"/>
      <point x="790" y="1105" type="line"/>
      <point x="873" y="1105" type="line"/>
      <point x="873" y="228" type="line"/>
    </contour>
    <contour>
      <point x="787" y="1300" type="move" name="top"/>
    </contour>
    <contour>
      <point x="787" y="0" type="move" name="bot"/>
    </contour>
    <contour>
      <point x="918" y="0" type="move" name="ogonek"/>
    </contour>
  </outline>
</glyph>
<glyph name="p" format="1">
  <advance width="1637"/>
  <unicode hex="0070"/>
  <outline>
    <contour>
      <point x="175" y="-410" type="line"/>
      <point x="746" y="-410" type="line"/>
      <point x="746" y="87" type="line"/>
      <point x="807" y="8"/>
      <point x="942" y="-22"/>
      <point x="1081" y="-22" type="curve" smooth="yes"/>
      <point x="1355" y="-22"/>
      <point x="1501" y="99"/>
      <point x="1501" y="365" type="curve" smooth="yes"/>
      <point x="1501" y="926" type="line" smooth="yes"/>
      <point x="1501" y="1198"/>
      <point x="1354" y="1322"/>
      <point x="1078" y="1322" type="curve" smooth="yes"/>
      <point x="926" y="1322"/>
      <point x="769" y="1277"/>
      <point x="702" y="1188" type="curve"/>
      <point x="665" y="1300" type="line"/>
      <point x="175" y="1300" type="line"/>
    </contour>
    <contour>
      <point x="830" y="199" type="line"/>
      <point x="746" y="199" type="line"/>
      <point x="746" y="1105" type="line"/>
      <point x="830" y="1105" type="line"/>
      <point x="913" y="1105" type="line"/>
      <point x="913" y="199" type="line"/>
    </contour>
    <contour>
      <point x="819" y="0" type="move" name="bot"/>
    </contour>
    <contour>
      <point x="819" y="1300" type="move" name="top"/>
    </contour>
  </outline>
</glyph>
<glyph name="q" format="1">
  <advance width="1636"/>
  <unicode hex="0071"/>
  <outline>
    <contour>
      <point x="283" y="1322"/>
      <point x="136" y="1198"/>
      <point x="136" y="926" type="curve" smooth="yes"/>
      <point x="136" y="365" type="line" smooth="yes"/>
      <point x="136" y="99"/>
      <point x="282" y="-22"/>
      <point x="572" y="-22" type="curve" smooth="yes"/>
      <point x="711" y="-22"/>
      <point x="830" y="8"/>
      <point x="891" y="87" type="curve"/>
      <point x="891" y="-410" type="line"/>
      <point x="1462" y="-410" type="line"/>
      <point x="1462" y="1300" type="line"/>
      <point x="972" y="1300" type="line"/>
      <point x="935" y="1188" type="line"/>
      <point x="868" y="1277"/>
      <point x="727" y="1322"/>
      <point x="575" y="1322" type="curve" smooth="yes"/>
    </contour>
    <contour>
      <point x="807" y="199" type="line"/>
      <point x="724" y="199" type="line"/>
      <point x="724" y="1105" type="line"/>
      <point x="807" y="1105" type="line"/>
      <point x="891" y="1105" type="line"/>
      <point x="891" y="199" type="line"/>
    </contour>
  </outline>
</glyph>
<glyph name="r" format="1">
  <advance width="1197"/>
  <unicode hex="0072"/>
  <outline>
    <contour>
      <point x="880" y="1323"/>
      <point x="751" y="1260"/>
      <point x="706" y="1153" type="curve"/>
      <point x="665" y="1300" type="line"/>
      <point x="179" y="1300" type="line"/>
      <point x="178" y="0" type="line"/>
      <point x="749" y="0" type="line"/>
      <point x="749" y="745" type="line"/>
      <point x="749" y="893" type="line"/>
      <point x="1035" y="949" type="line"/>
      <point x="1035" y="1327" type="line"/>
    </contour>
    <contour>
      <point x="569" y="1300" type="move" name="top"/>
    </contour>
    <contour>
      <point x="479" y="0" type="move" name="bot"/>
    </contour>
  </outline>
</glyph>
<glyph name="s" format="1">
  <advance width="1460"/>
  <unicode hex="0073"/>
  <outline>
    <contour>
      <point x="722" y="-22" type="curve" smooth="yes"/>
      <point x="1181" y="-22"/>
      <point x="1360" y="6"/>
      <point x="1360" y="420" type="curve" smooth="yes"/>
      <point x="1360" y="679"/>
      <point x="1232" y="746"/>
      <point x="1029" y="786" type="curve" smooth="yes"/>
      <point x="810" y="829" type="line" smooth="yes"/>
      <point x="669" y="857"/>
      <point x="662" y="853"/>
      <point x="662" y="917" type="curve" smooth="yes"/>
      <point x="662" y="1063" type="line"/>
      <point x="736" y="1063" type="line"/>
      <point x="809" y="1063" type="line"/>
      <point x="809" y="924" type="line"/>
      <point x="1329" y="940" type="line"/>
      <point x="1329" y="1293"/>
      <point x="1146" y="1322"/>
      <point x="751" y="1322" type="curve" smooth="yes"/>
      <point x="325" y="1322"/>
      <point x="112" y="1266"/>
      <point x="112" y="900" type="curve" smooth="yes"/>
      <point x="112" y="625"/>
      <point x="233" y="555"/>
      <point x="444" y="517" type="curve" smooth="yes"/>
      <point x="664" y="477" type="line" smooth="yes"/>
      <point x="786" y="455"/>
      <point x="810" y="464"/>
      <point x="810" y="390" type="curve" smooth="yes"/>
      <point x="809" y="233" type="line"/>
      <point x="736" y="233" type="line"/>
      <point x="662" y="233" type="line"/>
      <point x="662" y="400" type="line"/>
      <point x="142" y="377" type="line"/>
      <point x="142" y="5"/>
      <point x="334" y="-22"/>
    </contour>
    <contour>
      <point x="734" y="1300" type="move" name="top"/>
    </contour>
    <contour>
      <point x="734" y="0" type="move" name="bot"/>
    </contour>
  </outline>
</glyph>
<glyph name="t" format="1">
  <advance width="1117"/>
  <unicode hex="0074"/>
  <outline>
    <contour>
      <point x="239" y="1595" type="line"/>
      <point x="239" y="1300" type="line"/>
      <point x="102" y="1300" type="line"/>
      <point x="102" y="1100" type="line"/>
      <point x="239" y="1100" type="line"/>
      <point x="239" y="369" type="line" smooth="yes"/>
      <point x="239" y="47"/>
      <point x="394" y="-15"/>
      <point x="803" y="-15" type="curve" smooth="yes"/>
      <point x="914" y="-15"/>
      <point x="1013" y="3"/>
      <point x="1014" y="3" type="curve"/>
      <point x="1014" y="233" type="line"/>
      <point x="905" y="233"/>
      <point x="810" y="251"/>
      <point x="810" y="338" type="curve" smooth="yes"/>
      <point x="810" y="1100" type="line"/>
      <point x="969" y="1100" type="line"/>
      <point x="969" y="1300" type="line"/>
      <point x="810" y="1300" type="line"/>
      <point x="810" y="1595" type="line"/>
    </contour>
    <contour>
      <point x="566" y="1300" type="move" name="caron.alt"/>
    </contour>
    <contour>
      <point x="580" y="0" type="move" name="bot"/>
    </contour>
    <contour>
      <point x="538" y="753" type="move" name="mid"/>
    </contour>
    <contour>
      <point x="540" y="1595" type="move" name="top"/>
    </contour>
    <contour>
      <point x="580" y="0" type="move" name="bottom"/>
    </contour>
  </outline>
</glyph>
<glyph name="v" format="1">
  <advance width="1524"/>
  <unicode hex="0076"/>
  <outline>
    <contour>
      <point x="883" y="1300" type="line"/>
      <point x="779" y="356" type="line"/>
      <point x="766" y="356" type="line"/>
      <point x="632" y="1300" type="line"/>
      <point x="81" y="1300" type="line"/>
      <point x="361" y="0" type="line"/>
      <point x="1155" y="0" type="line"/>
      <point x="1434" y="1300" type="line"/>
    </contour>
  </outline>
</glyph>
<glyph name="w" format="1">
  <advance width="2021"/>
  <unicode hex="0077"/>
  <outline>
    <contour>
      <point x="226" y="0" type="line"/>
      <point x="916" y="0" type="line"/>
      <point x="999" y="801" type="line"/>
      <point x="1009" y="801" type="line"/>
      <point x="1095" y="0" type="line"/>
      <point x="1789" y="0" type="line"/>
      <point x="1983" y="1300" type="line"/>
      <point x="1488" y="1300" type="line"/>
      <point x="1395" y="385" type="line"/>
      <point x="1381" y="385" type="line"/>
      <point x="1284" y="1300" type="line"/>
      <point x="739" y="1300" type="line"/>
      <point x="637" y="385" type="line"/>
      <point x="623" y="385" type="line"/>
      <point x="528" y="1300" type="line"/>
      <point x="28" y="1300" type="line"/>
    </contour>
    <contour>
      <point x="1006" y="1300" type="move" name="top"/>
    </contour>
    <contour>
      <point x="1006" y="0" type="move" name="bot"/>
    </contour>
  </outline>
</glyph>
<glyph name="x" format="1">
  <advance width="1486"/>
  <unicode hex="0078"/>
  <outline>
    <contour>
      <point x="71" y="0" type="line"/>
      <point x="548" y="0" type="line"/>
      <point x="749" y="359" type="line"/>
      <point x="749" y="359"/>
      <point x="972" y="561"/>
      <point x="972" y="561" type="curve"/>
      <point x="1407" y="1300" type="line"/>
      <point x="936" y="1300" type="line"/>
      <point x="747" y="938" type="line"/>
      <point x="747" y="938"/>
      <point x="504" y="742"/>
      <point x="504" y="742" type="curve"/>
    </contour>
    <contour>
      <point x="850" y="0" type="curve"/>
      <point x="1417" y="0" type="line"/>
      <point x="1417" y="0"/>
      <point x="653" y="1300"/>
      <point x="653" y="1300" type="curve"/>
      <point x="81" y="1300" type="line"/>
      <point x="81" y="1300"/>
      <point x="850" y="0"/>
    </contour>
  </outline>
</glyph>
<glyph name="braceleft" format="1">
  <advance width="1292"/>
  <unicode hex="007B"/>
  <outline>
    <contour>
      <point x="1180" y="-330" type="curve"/>
      <point x="1180" y="-51" type="line"/>
      <point x="848" y="-51"/>
      <point x="827" y="14"/>
      <point x="828" y="304" type="curve" smooth="yes"/>
      <point x="828" y="633"/>
      <point x="769" y="754"/>
      <point x="608" y="796" type="curve"/>
      <point x="769" y="838"/>
      <point x="828" y="959"/>
      <point x="828" y="1288" type="curve" smooth="yes"/>
      <point x="827" y="1578"/>
      <point x="848" y="1643"/>
      <point x="1180" y="1643" type="curve"/>
      <point x="1180" y="1922" type="line"/>
      <point x="640" y="1922"/>
      <point x="352" y="1814"/>
      <point x="352" y="1226" type="curve" smooth="yes"/>
      <point x="352" y="1026"/>
      <point x="354" y="934"/>
      <point x="164" y="934" type="curve"/>
      <point x="164" y="658" type="line"/>
      <point x="354" y="658"/>
      <point x="352" y="566"/>
      <point x="352" y="366" type="curve" smooth="yes"/>
      <point x="352" y="-222"/>
      <point x="640" y="-330"/>
    </contour>
  </outline>
</glyph>
<glyph name="braceright" format="1">
  <advance width="1292"/>
  <unicode hex="007D"/>
  <outline>
    <contour>
      <point x="164" y="-330" type="line"/>
      <point x="704" y="-330"/>
      <point x="992" y="-222"/>
      <point x="992" y="366" type="curve" smooth="yes"/>
      <point x="992" y="566"/>
      <point x="990" y="658"/>
      <point x="1180" y="658" type="curve"/>
      <point x="1180" y="934" type="line"/>
      <point x="990" y="934"/>
      <point x="992" y="1026"/>
      <point x="992" y="1226" type="curve" smooth="yes"/>
      <point x="992" y="1814"/>
      <point x="704" y="1922"/>
      <point x="164" y="1922" type="curve"/>
      <point x="164" y="1643" type="line"/>
      <point x="496" y="1643"/>
      <point x="517" y="1578"/>
      <point x="516" y="1288" type="curve" smooth="yes"/>
      <point x="516" y="959"/>
      <point x="575" y="838"/>
      <point x="736" y="796" type="curve"/>
      <point x="575" y="754"/>
      <point x="516" y="633"/>
      <point x="516" y="304" type="curve" smooth="yes"/>
      <point x="517" y="14"/>
      <point x="496" y="-51"/>
      <point x="164" y="-51" type="curve"/>
    </contour>
  </outline>
</glyph>
<glyph name="asciitilde" format="1">
  <advance width="1593"/>
  <unicode hex="007E"/>
  <outline>
    <contour>
      <point x="1051" y="610" type="curve" smooth="yes"/>
      <point x="1255" y="580"/>
      <point x="1379" y="702"/>
      <point x="1408" y="1005" type="curve"/>
      <point x="1244" y="1052" type="line"/>
      <point x="1198" y="948"/>
      <point x="1137" y="895"/>
      <point x="1029" y="922" type="curve" smooth="yes"/>
      <point x="870" y="962"/>
      <point x="761" y="1112"/>
      <point x="540" y="1080" type="curve" smooth="yes"/>
      <point x="388" y="1058"/>
      <point x="300" y="986"/>
      <point x="241" y="713" type="curve"/>
      <point x="370" y="641" type="line"/>
      <point x="411" y="764"/>
      <point x="480" y="793"/>
      <point x="563" y="784" type="curve" smooth="yes"/>
      <point x="738" y="764"/>
      <point x="854" y="639"/>
    </contour>
  </outline>
</glyph>
<glyph name="cent" format="1">
  <advance width="1706"/>
  <unicode hex="00A2"/>
  <outline>
    <contour>
      <point x="779" y="1844" type="line"/>
      <point x="779" y="1538" type="line"/>
      <point x="948" y="1538" type="line"/>
      <point x="948" y="1844" type="line"/>
    </contour>
    <contour>
      <point x="781" y="42" type="line"/>
      <point x="781" y="-264" type="line"/>
      <point x="950" y="-264" type="line"/>
      <point x="950" y="42" type="line"/>
    </contour>
    <component base="C"/>
  </outline>
</glyph>
<glyph name="sterling" format="1">
  <advance width="1713"/>
  <unicode hex="00A3"/>
  <outline>
    <contour>
      <point x="118" y="0" type="line"/>
      <point x="345" y="0" type="line" smooth="yes"/>
      <point x="576" y="2"/>
      <point x="722" y="21"/>
      <point x="825" y="130" type="curve"/>
      <point x="882" y="73"/>
      <point x="985" y="0"/>
      <point x="1141" y="0" type="curve" smooth="yes"/>
      <point x="1440" y="0"/>
      <point x="1572" y="110"/>
      <point x="1572" y="385" type="curve" smooth="yes"/>
      <point x="1572" y="562" type="line"/>
      <point x="991" y="562" type="line"/>
      <point x="991" y="268" type="line"/>
      <point x="927.0" y="268.0" type="line"/>
      <point x="863" y="268" type="line"/>
      <point x="863" y="718" type="line"/>
      <point x="1290" y="718" type="line"/>
      <point x="1290" y="940" type="line"/>
      <point x="863" y="940" type="line"/>
      <point x="863" y="1364" type="line"/>
      <point x="916.5" y="1364.0" type="line"/>
      <point x="970" y="1364" type="line"/>
      <point x="970" y="1070" type="line"/>
      <point x="1551" y="1070" type="line"/>
      <point x="1551" y="1331" type="line" smooth="yes"/>
      <point x="1551" y="1594"/>
      <point x="1233" y="1632"/>
      <point x="937" y="1632" type="curve" smooth="yes"/>
      <point x="507" y="1632"/>
      <point x="278" y="1551"/>
      <point x="278" y="1134" type="curve" smooth="yes"/>
      <point x="278" y="941" type="line"/>
      <point x="120" y="941" type="line"/>
      <point x="120" y="719" type="line"/>
      <point x="278" y="719" type="line"/>
      <point x="278" y="376" type="line" smooth="yes"/>
      <point x="278" y="297"/>
      <point x="191" y="275"/>
      <point x="120" y="266" type="curve"/>
    </contour>
  </outline>
</glyph>
<glyph name="yen" format="1">
  <advance width="1644"/>
  <unicode hex="00A5"/>
  <outline>
    <contour>
      <point x="517" y="0" type="line"/>
      <point x="1122" y="0" type="line"/>
      <point x="1122" y="299" type="line"/>
      <point x="1465" y="299" type="line"/>
      <point x="1465" y="442" type="line"/>
      <point x="1122" y="442" type="line"/>
      <point x="1174" y="585" type="line"/>
      <point x="1465" y="585" type="line"/>
      <point x="1465" y="728" type="line"/>
      <point x="1230" y="728" type="line"/>
      <point x="1564" y="1595" type="line"/>
      <point x="1008" y="1595" type="line"/>
      <point x="832" y="815" type="line"/>
      <point x="632" y="1595" type="line"/>
      <point x="72" y="1595" type="line"/>
      <point x="412" y="728" type="line"/>
      <point x="167" y="728" type="line"/>
      <point x="167" y="585" type="line"/>
      <point x="468" y="585" type="line"/>
      <point x="517" y="442" type="line"/>
      <point x="167" y="442" type="line"/>
      <point x="167" y="299" type="line"/>
      <point x="517" y="299" type="line"/>
    </contour>
  </outline>
</glyph>
<glyph name="section" format="1">
  <advance width="1583"/>
  <unicode hex="00A7"/>
  <outline>
    <contour>
      <point x="770" y="-193" type="curve" smooth="yes"/>
      <point x="1108" y="-193"/>
      <point x="1384" y="-150"/>
      <point x="1384" y="248" type="curve" smooth="yes"/>
      <point x="1384" y="411"/>
      <point x="1271" y="491"/>
      <point x="1189" y="532" type="curve"/>
      <point x="1283" y="532"/>
      <point x="1400" y="638"/>
      <point x="1400" y="796" type="curve" smooth="yes"/>
      <point x="1400" y="1059"/>
      <point x="1071" y="1070"/>
      <point x="882" y="1078" type="curve" smooth="yes"/>
      <point x="842" y="1080"/>
      <point x="781" y="1077"/>
      <point x="763" y="1095" type="curve"/>
      <point x="763" y="1344" type="line"/>
      <point x="800" y="1344" type="line"/>
      <point x="836" y="1344" type="line"/>
      <point x="836" y="1153" type="line"/>
      <point x="1388" y="1153" type="line"/>
      <point x="1388" y="1189"/>
      <point x="1389" y="1223"/>
      <point x="1389" y="1258" type="curve" smooth="yes"/>
      <point x="1389" y="1596"/>
      <point x="1070" y="1617"/>
      <point x="808" y="1617" type="curve" smooth="yes"/>
      <point x="470" y="1617"/>
      <point x="194" y="1574"/>
      <point x="194" y="1176" type="curve" smooth="yes"/>
      <point x="194" y="1026"/>
      <point x="271" y="940"/>
      <point x="371" y="893" type="curve"/>
      <point x="364" y="886"/>
      <point x="179" y="790"/>
      <point x="179" y="630" type="curve" smooth="yes"/>
      <point x="179" y="402"/>
      <point x="337" y="334"/>
      <point x="561" y="334" type="curve" smooth="yes"/>
      <point x="816" y="334" type="line"/>
      <point x="816" y="82" type="line"/>
      <point x="780" y="82" type="line"/>
      <point x="743" y="82" type="line"/>
      <point x="743" y="273" type="line"/>
      <point x="192" y="273" type="line"/>
      <point x="192" y="237"/>
      <point x="191" y="203"/>
      <point x="191" y="168" type="curve" smooth="yes"/>
      <point x="191" y="-171"/>
      <point x="507" y="-193"/>
    </contour>
    <contour>
      <point x="823" y="595" type="line"/>
      <point x="789" y="595" type="line"/>
      <point x="754" y="595" type="line"/>
      <point x="754" y="818" type="line"/>
      <point x="789" y="818" type="line"/>
      <point x="823" y="818" type="line"/>
    </contour>
  </outline>
</glyph>
<glyph name="dieresis" format="1">
  <advance width="1463"/>
  <unicode hex="00A8"/>
  <outline>
    <contour>
      <point x="1009" y="1760"/>
      <point x="935" y="1704"/>
      <point x="935" y="1593" type="curve" smooth="yes"/>
      <point x="935" y="1479"/>
      <point x="1008" y="1425"/>
      <point x="1108" y="1425" type="curve" smooth="yes"/>
      <point x="1209" y="1425"/>
      <point x="1278" y="1479"/>
      <point x="1278" y="1593" type="curve" smooth="yes"/>
      <point x="1278" y="1706"/>
      <point x="1209" y="1760"/>
      <point x="1108" y="1760" type="curve" smooth="yes"/>
    </contour>
    <contour>
      <point x="362" y="1760"/>
      <point x="288" y="1704"/>
      <point x="288" y="1593" type="curve" smooth="yes"/>
      <point x="288" y="1479"/>
      <point x="360" y="1425"/>
      <point x="460" y="1425" type="curve" smooth="yes"/>
      <point x="561" y="1425"/>
      <point x="631" y="1479"/>
      <point x="631" y="1593" type="curve" smooth="yes"/>
      <point x="631" y="1706"/>
      <point x="561" y="1760"/>
      <point x="460" y="1760" type="curve" smooth="yes"/>
    </contour>
    <contour>
      <point x="779" y="1300" type="move" name="_top"/>
    </contour>
  </outline>
</glyph>
<glyph name="copyright" format="1">
  <advance width="2156"/>
  <unicode hex="00A9"/>
  <outline>
    <contour>
      <point x="1057" y="272" type="curve" smooth="yes"/>
      <point x="1302" y="272"/>
      <point x="1452" y="312"/>
      <point x="1452" y="542" type="curve" smooth="yes"/>
      <point x="1452" y="749" type="line"/>
      <point x="1175" y="749" type="line"/>
      <point x="1175" y="432" type="line"/>
      <point x="1075.5" y="432.0" type="line"/>
      <point x="976" y="432" type="line"/>
      <point x="976" y="1222" type="line"/>
      <point x="1075.5" y="1222.0" type="line"/>
      <point x="1175" y="1222" type="line"/>
      <point x="1175" y="913" type="line"/>
      <point x="1452" y="913" type="line"/>
      <point x="1452" y="1111" type="line" smooth="yes"/>
      <point x="1452" y="1366"/>
      <point x="1254" y="1381"/>
      <point x="1057" y="1381" type="curve" smooth="yes"/>
      <point x="828" y="1381"/>
      <point x="696" y="1334"/>
      <point x="696" y="1107" type="curve" smooth="yes"/>
      <point x="696" y="547" type="line" smooth="yes"/>
      <point x="696" y="315"/>
      <point x="842" y="272"/>
    </contour>
    <contour>
      <point x="1069" y="68" type="curve" smooth="yes"/>
      <point x="660" y="68"/>
      <point x="460" y="169"/>
      <point x="460" y="535" type="curve" smooth="yes"/>
      <point x="460" y="1114" type="line" smooth="yes"/>
      <point x="460" y="1471"/>
      <point x="657" y="1573"/>
      <point x="1069" y="1573" type="curve" smooth="yes"/>
      <point x="1412" y="1573"/>
      <point x="1678" y="1500"/>
      <point x="1678" y="1165" type="curve" smooth="yes"/>
      <point x="1678" y="482" type="line" smooth="yes"/>
      <point x="1678" y="156"/>
      <point x="1437" y="68"/>
    </contour>
    <contour>
      <point x="1069" y="-101" type="curve" smooth="yes"/>
      <point x="1514" y="-101"/>
      <point x="1917" y="14"/>
      <point x="1917" y="539" type="curve" smooth="yes"/>
      <point x="1917" y="1116" type="line" smooth="yes"/>
      <point x="1917" y="1610"/>
      <point x="1578" y="1749"/>
      <point x="1069" y="1749" type="curve" smooth="yes"/>
      <point x="627" y="1749"/>
      <point x="221" y="1638"/>
      <point x="221" y="1116" type="curve" smooth="yes"/>
      <point x="221" y="539" type="line" smooth="yes"/>
      <point x="221" y="42"/>
      <point x="558" y="-101"/>
    </contour>
  </outline>
</glyph>
<glyph name="ordfeminine" format="1">
  <advance width="1616"/>
  <unicode hex="00AA"/>
  <outline>
    <contour>
      <point x="548" y="263" type="curve" smooth="yes"/>
      <point x="712" y="263"/>
      <point x="827" y="327"/>
      <point x="888" y="428" type="curve"/>
      <point x="944" y="290" type="line"/>
      <point x="944" y="290"/>
      <point x="1435" y="289"/>
      <point x="1435" y="289" type="curve"/>
      <point x="1435" y="1241" type="line" smooth="yes"/>
      <point x="1435" y="1578.85"/>
      <point x="1181.08" y="1616"/>
      <point x="794" y="1616" type="curve" smooth="yes"/>
      <point x="501" y="1616"/>
      <point x="190" y="1579"/>
      <point x="190" y="1294" type="curve"/>
      <point x="190" y="1184" type="line"/>
      <point x="726" y="1204" type="line"/>
      <point x="726" y="1395" type="line"/>
      <point x="795.5" y="1395" type="line"/>
      <point x="865" y="1395" type="line"/>
      <point x="865" y="1072" type="line"/>
      <point x="629" y="1073" type="line" smooth="yes"/>
      <point x="319" y="1074"/>
      <point x="127" y="982"/>
      <point x="127" y="677" type="curve" smooth="yes"/>
      <point x="127" y="396"/>
      <point x="263" y="263"/>
    </contour>
    <contour>
      <point x="699" y="489" type="line"/>
      <point x="699" y="942" type="line"/>
      <point x="865" y="942" type="line"/>
      <point x="865" y="489" type="line"/>
    </contour>
  </outline>
</glyph>
<glyph name="guillemotleft" format="1">
  <advance width="1662"/>
  <unicode hex="00AB"/>
  <outline>
    <contour>
      <point x="753" y="190" type="curve" smooth="yes"/>
      <point x="799" y="190"/>
      <point x="834" y="230"/>
      <point x="834" y="277" type="curve" smooth="yes"/>
      <point x="834" y="300"/>
      <point x="828" y="323"/>
      <point x="811" y="345" type="curve" smooth="yes"/>
      <point x="477" y="777" type="line"/>
      <point x="811" y="1209" type="line" smooth="yes"/>
      <point x="829" y="1233"/>
      <point x="836" y="1256"/>
      <point x="836" y="1278" type="curve" smooth="yes"/>
      <point x="836" y="1326"/>
      <point x="801" y="1364"/>
      <point x="755" y="1364" type="curve" smooth="yes"/>
      <point x="736" y="1364"/>
      <point x="714" y="1358"/>
      <point x="690" y="1341" type="curve" smooth="yes"/>
      <point x="163" y="961" type="line" smooth="yes"/>
      <point x="105" y="919"/>
      <point x="74" y="846"/>
      <point x="73" y="775" type="curve" smooth="yes"/>
      <point x="73" y="706"/>
      <point x="103" y="636"/>
      <point x="163" y="593" type="curve" smooth="yes"/>
      <point x="690" y="213" type="line" smooth="yes"/>
      <point x="711" y="197"/>
      <point x="734" y="190"/>
    </contour>
    <contour>
      <point x="1489" y="190" type="curve" smooth="yes"/>
      <point x="1535" y="190"/>
      <point x="1569" y="230"/>
      <point x="1569" y="277" type="curve" smooth="yes"/>
      <point x="1569" y="300"/>
      <point x="1564" y="323"/>
      <point x="1547" y="345" type="curve" smooth="yes"/>
      <point x="1213" y="777" type="line"/>
      <point x="1547" y="1209" type="line" smooth="yes"/>
      <point x="1565" y="1233"/>
      <point x="1571" y="1256"/>
      <point x="1571" y="1278" type="curve" smooth="yes"/>
      <point x="1571" y="1326"/>
      <point x="1537" y="1364"/>
      <point x="1491" y="1364" type="curve" smooth="yes"/>
      <point x="1473" y="1364"/>
      <point x="1449" y="1358"/>
      <point x="1425" y="1341" type="curve" smooth="yes"/>
      <point x="899" y="961" type="line" smooth="yes"/>
      <point x="841" y="919"/>
      <point x="810" y="846"/>
      <point x="809" y="775" type="curve" smooth="yes"/>
      <point x="809" y="706"/>
      <point x="839" y="636"/>
      <point x="899" y="593" type="curve" smooth="yes"/>
      <point x="1425" y="213" type="line" smooth="yes"/>
      <point x="1448" y="196"/>
      <point x="1470" y="190"/>
    </contour>
  </outline>
</glyph>
<glyph name="uni00AD" format="1">
  <advance width="1310"/>
  <unicode hex="00AD"/>
  <outline>
    <contour>
      <point x="234" y="561" type="line"/>
      <point x="1067" y="561" type="line"/>
      <point x="1067" y="897" type="line"/>
      <point x="234" y="897" type="line"/>
    </contour>
  </outline>
</glyph>
<glyph name="registered" format="1">
  <advance width="2110"/>
  <unicode hex="00AE"/>
  <outline>
    <contour>
      <point x="624" y="279" type="line"/>
      <point x="1013" y="279" type="line"/>
      <point x="1013" y="756" type="line"/>
      <point x="1054.5" y="756.0" type="line"/>
      <point x="1096" y="756" type="line"/>
      <point x="1096" y="279" type="line"/>
      <point x="1475" y="279" type="line"/>
      <point x="1475" y="643" type="line" smooth="yes"/>
      <point x="1475" y="751"/>
      <point x="1429" y="822"/>
      <point x="1345" y="828" type="curve" smooth="yes"/>
      <point x="1345" y="828"/>
      <point x="1344" y="864"/>
      <point x="1344" y="864" type="curve" smooth="yes"/>
      <point x="1426" y="871"/>
      <point x="1479" y="945"/>
      <point x="1479" y="1071" type="curve" smooth="yes"/>
      <point x="1479" y="1164" type="line" smooth="yes"/>
      <point x="1479" y="1423"/>
      <point x="1289" y="1434"/>
      <point x="1134" y="1434" type="curve" smooth="yes"/>
      <point x="624" y="1434" type="line"/>
    </contour>
    <contour>
      <point x="1050" y="68" type="curve" smooth="yes"/>
      <point x="641" y="68"/>
      <point x="441" y="169"/>
      <point x="441" y="535" type="curve" smooth="yes"/>
      <point x="441" y="1114" type="line" smooth="yes"/>
      <point x="441" y="1471"/>
      <point x="638" y="1573"/>
      <point x="1050" y="1573" type="curve" smooth="yes"/>
      <point x="1393" y="1573"/>
      <point x="1659" y="1500"/>
      <point x="1659" y="1165" type="curve" smooth="yes"/>
      <point x="1659" y="482" type="line" smooth="yes"/>
      <point x="1659" y="156"/>
      <point x="1418" y="68"/>
    </contour>
    <contour>
      <point x="1050" y="-101" type="curve" smooth="yes"/>
      <point x="1495" y="-101"/>
      <point x="1898" y="14"/>
      <point x="1898" y="539" type="curve" smooth="yes"/>
      <point x="1898" y="1116" type="line" smooth="yes"/>
      <point x="1898" y="1610"/>
      <point x="1559" y="1749"/>
      <point x="1050" y="1749" type="curve" smooth="yes"/>
      <point x="608" y="1749"/>
      <point x="202" y="1638"/>
      <point x="202" y="1116" type="curve" smooth="yes"/>
      <point x="202" y="539" type="line" smooth="yes"/>
      <point x="202" y="42"/>
      <point x="539" y="-101"/>
    </contour>
    <contour>
      <point x="1013" y="915" type="line"/>
      <point x="1013" y="1274" type="line"/>
      <point x="1054.5" y="1274.0" type="line"/>
      <point x="1096" y="1274" type="line"/>
      <point x="1096" y="915" type="line"/>
      <point x="1054.5" y="915.0" type="line"/>
    </contour>
  </outline>
</glyph>
<glyph name="macron" format="1">
  <advance width="1310"/>
  <unicode hex="00AF"/>
  <outline>
    <contour>
      <point x="364" y="1738" type="line"/>
      <point x="364" y="1507" type="line"/>
      <point x="1197" y="1507" type="line"/>
      <point x="1197" y="1738" type="line"/>
    </contour>
    <contour>
      <point x="783" y="1624" type="move" name="_mid"/>
    </contour>
    <contour>
      <point x="781" y="1646" type="move" name="_bar"/>
    </contour>
    <contour>
      <point x="777" y="1300" type="move" name="_top"/>
    </contour>
  </outline>
</glyph>
<glyph name="degree" format="1">
  <advance width="1127"/>
  <unicode hex="00B0"/>
  <outline>
    <contour>
      <point x="557" y="1222" type="curve" smooth="yes"/>
      <point x="474" y="1222"/>
      <point x="416" y="1283"/>
      <point x="416" y="1371" type="curve" smooth="yes"/>
      <point x="416" y="1459"/>
      <point x="474" y="1520"/>
      <point x="557" y="1520" type="curve" smooth="yes"/>
      <point x="640" y="1520"/>
      <point x="698" y="1459"/>
      <point x="698" y="1371" type="curve" smooth="yes"/>
      <point x="698" y="1283"/>
      <point x="640" y="1222"/>
    </contour>
    <contour>
      <point x="557" y="1070" type="curve" smooth="yes"/>
      <point x="765" y="1070"/>
      <point x="888" y="1218"/>
      <point x="888" y="1371" type="curve" smooth="yes"/>
      <point x="888" y="1524"/>
      <point x="765" y="1672"/>
      <point x="557" y="1672" type="curve" smooth="yes"/>
      <point x="349" y="1672"/>
      <point x="226" y="1524"/>
      <point x="226" y="1371" type="curve" smooth="yes"/>
      <point x="226" y="1218"/>
      <point x="349" y="1070"/>
    </contour>
  </outline>
</glyph>
<glyph name="twosuperior" format="1">
  <advance width="1081"/>
  <unicode hex="00B2"/>
  <outline>
    <contour>
      <point x="154" y="539" type="line"/>
      <point x="951" y="539" type="line"/>
      <point x="951" y="737" type="line"/>
      <point x="518" y="737" type="line"/>
      <point x="518" y="809"/>
      <point x="598" y="848"/>
      <point x="668" y="879" type="curve" smooth="yes"/>
      <point x="833" y="953"/>
      <point x="991" y="1039"/>
      <point x="991" y="1281" type="curve" smooth="yes"/>
      <point x="991" y="1547"/>
      <point x="837" y="1614"/>
      <point x="575" y="1614" type="curve" smooth="yes"/>
      <point x="332" y="1614"/>
      <point x="147" y="1553"/>
      <point x="153" y="1283" type="curve" smooth="yes"/>
      <point x="154" y="1241" type="line"/>
      <point x="518" y="1241" type="line"/>
      <point x="518" y="1435" type="line"/>
      <point x="568" y="1435" type="line"/>
      <point x="618" y="1435" type="line"/>
      <point x="618" y="1282" type="line" smooth="yes"/>
      <point x="618" y="1228"/>
      <point x="544" y="1198"/>
      <point x="482" y="1173" type="curve" smooth="yes"/>
      <point x="288" y="1095"/>
      <point x="154" y="980"/>
      <point x="154" y="718" type="curve" smooth="yes"/>
    </contour>
  </outline>
</glyph>
<glyph name="threesuperior" format="1">
  <advance width="1248"/>
  <unicode hex="00B3"/>
  <outline>
    <contour>
      <point x="626" y="511" type="curve" smooth="yes"/>
      <point x="942" y="511"/>
      <point x="1057" y="604"/>
      <point x="1057" y="850" type="curve" smooth="yes"/>
      <point x="1057" y="958"/>
      <point x="1011" y="1044"/>
      <point x="917" y="1080" type="curve"/>
      <point x="1000" y="1116"/>
      <point x="1055" y="1184"/>
      <point x="1055" y="1292" type="curve" smooth="yes"/>
      <point x="1055" y="1539"/>
      <point x="915" y="1616"/>
      <point x="625" y="1616" type="curve" smooth="yes"/>
      <point x="345" y="1616"/>
      <point x="204" y="1533"/>
      <point x="204" y="1270" type="curve" smooth="yes"/>
      <point x="204" y="1215" type="line"/>
      <point x="568" y="1215" type="line"/>
      <point x="568" y="1438" type="line"/>
      <point x="623" y="1438" type="line"/>
      <point x="681" y="1438" type="line"/>
      <point x="681" y="1154" type="line"/>
      <point x="510" y="1154" type="line"/>
      <point x="510" y="1006" type="line"/>
      <point x="681" y="1006" type="line"/>
      <point x="681" y="693" type="line"/>
      <point x="621" y="693" type="line"/>
      <point x="568" y="693" type="line"/>
      <point x="568" y="943" type="line"/>
      <point x="204" y="943" type="line"/>
      <point x="204" y="882" type="line" smooth="yes"/>
      <point x="204" y="632"/>
      <point x="330" y="511"/>
    </contour>
  </outline>
</glyph>
<glyph name="acute" format="1">
  <advance width="1287"/>
  <unicode hex="00B4"/>
  <outline>
    <contour>
      <point x="459" y="1476" type="curve" smooth="yes"/>
      <point x="664" y="1538"/>
      <point x="951" y="1610"/>
      <point x="1055" y="1670" type="curve" smooth="yes"/>
      <point x="1136" y="1717"/>
      <point x="1171" y="1787"/>
      <point x="1171" y="1852" type="curve" smooth="yes"/>
      <point x="1171" y="1946"/>
      <point x="1100" y="2030"/>
      <point x="997" y="2030" type="curve" smooth="yes"/>
      <point x="959" y="2030"/>
      <point x="917" y="2019"/>
      <point x="872" y="1993" type="curve" smooth="yes"/>
      <point x="771" y="1935"/>
      <point x="561" y="1729"/>
      <point x="398" y="1580" type="curve" smooth="yes"/>
      <point x="363.376" y="1549.7"/>
      <point x="357.548" y="1519.16"/>
      <point x="369.906" y="1498.36" type="curve" smooth="yes"/>
      <point x="383.858" y="1474.88"/>
      <point x="420.078" y="1461.85"/>
    </contour>
    <contour>
      <point x="536" y="1300" type="move" name="_top"/>
    </contour>
  </outline>
</glyph>
<glyph name="paragraph" format="1">
  <advance width="1605"/>
  <unicode hex="00B6"/>
  <outline>
    <contour>
      <point x="827" y="1595" type="line" smooth="yes"/>
      <point x="480" y="1595"/>
      <point x="194" y="1516"/>
      <point x="194" y="1107" type="curve" smooth="yes"/>
      <point x="194" y="782"/>
      <point x="396" y="659"/>
      <point x="729" y="659" type="curve"/>
      <point x="729" y="0" type="line"/>
      <point x="991" y="0" type="line"/>
      <point x="991" y="658" type="line"/>
      <point x="1100" y="658" type="line"/>
      <point x="1100" y="0" type="line"/>
      <point x="1361" y="0" type="line"/>
      <point x="1361" y="1595" type="line"/>
    </contour>
  </outline>
</glyph>
<glyph name="periodcentered" format="1">
  <advance width="1295"/>
  <unicode hex="00B7"/>
  <outline>
    <contour>
      <point x="879" y="943" type="curve" smooth="yes"/>
      <point x="963" y="943"/>
      <point x="1046" y="1001"/>
      <point x="1046" y="1116" type="curve" smooth="yes"/>
      <point x="1046" y="1231"/>
      <point x="963" y="1289"/>
      <point x="879" y="1289" type="curve" smooth="yes"/>
      <point x="795" y="1289"/>
      <point x="711" y="1231"/>
      <point x="711" y="1116" type="curve" smooth="yes"/>
      <point x="711" y="1001"/>
      <point x="795" y="943"/>
    </contour>
    <contour>
      <point x="364" y="1113" type="move" name="_mid"/>
    </contour>
  </outline>
</glyph>
<glyph name="onesuperior" format="1">
  <advance width="932"/>
  <unicode hex="00B9"/>
  <outline>
    <contour>
      <point x="285" y="555" type="line"/>
      <point x="680" y="555" type="line"/>
      <point x="680" y="1595" type="line"/>
      <point x="368" y="1595" type="line"/>
      <point x="311" y="1560"/>
      <point x="231" y="1540"/>
      <point x="141" y="1540" type="curve"/>
      <point x="141" y="1396" type="line"/>
      <point x="285" y="1396" type="line"/>
    </contour>
  </outline>
</glyph>
<glyph name="ordmasculine" format="1">
  <advance width="1433"/>
  <unicode hex="00BA"/>
  <outline>
    <contour>
      <point x="714" y="510" type="curve"/>
      <point x="960" y="513"/>
      <point x="1235" y="521"/>
      <point x="1235" y="823" type="curve" smooth="yes"/>
      <point x="1235" y="1303" type="line" smooth="yes"/>
      <point x="1235" y="1591"/>
      <point x="966" y="1615"/>
      <point x="715" y="1615" type="curve" smooth="yes"/>
      <point x="477" y="1615"/>
      <point x="188" y="1596"/>
      <point x="188" y="1304" type="curve" smooth="yes"/>
      <point x="188" y="824" type="line" smooth="yes"/>
      <point x="188" y="526"/>
      <point x="460" y="510"/>
    </contour>
    <contour>
      <point x="645" y="728" type="line"/>
      <point x="645" y="1425" type="line"/>
      <point x="712" y="1425" type="line"/>
      <point x="778" y="1425" type="line"/>
      <point x="778" y="728" type="line"/>
      <point x="712" y="728" type="line"/>
    </contour>
  </outline>
</glyph>
<glyph name="guillemotright" format="1">
  <advance width="1670"/>
  <unicode hex="00BB"/>
  <outline>
    <contour>
      <point x="171" y="190" type="curve" smooth="yes"/>
      <point x="190" y="190"/>
      <point x="212" y="196"/>
      <point x="235" y="213" type="curve" smooth="yes"/>
      <point x="761" y="593" type="line" smooth="yes"/>
      <point x="821" y="636"/>
      <point x="851" y="706"/>
      <point x="851" y="775" type="curve" smooth="yes"/>
      <point x="850" y="846"/>
      <point x="819" y="919"/>
      <point x="761" y="961" type="curve" smooth="yes"/>
      <point x="235" y="1341" type="line" smooth="yes"/>
      <point x="211" y="1358"/>
      <point x="187" y="1364"/>
      <point x="169" y="1364" type="curve" smooth="yes"/>
      <point x="123" y="1364"/>
      <point x="89" y="1326"/>
      <point x="89" y="1278" type="curve" smooth="yes"/>
      <point x="89" y="1256"/>
      <point x="95" y="1233"/>
      <point x="113" y="1209" type="curve" smooth="yes"/>
      <point x="447" y="777" type="line"/>
      <point x="113" y="345" type="line" smooth="yes"/>
      <point x="96" y="323"/>
      <point x="91" y="300"/>
      <point x="91" y="277" type="curve" smooth="yes"/>
      <point x="91" y="230"/>
      <point x="125" y="190"/>
    </contour>
    <contour>
      <point x="907" y="190" type="curve" smooth="yes"/>
      <point x="926" y="190"/>
      <point x="949" y="197"/>
      <point x="970" y="213" type="curve" smooth="yes"/>
      <point x="1497" y="593" type="line" smooth="yes"/>
      <point x="1557" y="636"/>
      <point x="1587" y="706"/>
      <point x="1587" y="775" type="curve" smooth="yes"/>
      <point x="1586" y="846"/>
      <point x="1555" y="919"/>
      <point x="1497" y="961" type="curve" smooth="yes"/>
      <point x="970" y="1341" type="line" smooth="yes"/>
      <point x="946" y="1358"/>
      <point x="924" y="1364"/>
      <point x="905" y="1364" type="curve" smooth="yes"/>
      <point x="859" y="1364"/>
      <point x="824" y="1326"/>
      <point x="824" y="1278" type="curve" smooth="yes"/>
      <point x="824" y="1256"/>
      <point x="831" y="1233"/>
      <point x="849" y="1209" type="curve" smooth="yes"/>
      <point x="1183" y="777" type="line"/>
      <point x="849" y="345" type="line" smooth="yes"/>
      <point x="832" y="323"/>
      <point x="826" y="300"/>
      <point x="826" y="277" type="curve" smooth="yes"/>
      <point x="826" y="230"/>
      <point x="861" y="190"/>
    </contour>
  </outline>
</glyph>
<glyph name="onequarter" format="1">
  <advance width="2598"/>
  <unicode hex="00BC"/>
  <outline>
    <contour>
      <point x="2128" y="0" type="line"/>
      <point x="2487" y="0" type="line"/>
      <point x="2487" y="630" type="line"/>
      <point x="2128" y="630" type="line"/>
      <point x="2128" y="405" type="line"/>
      <point x="1998" y="405" type="line"/>
      <point x="1998" y="441" type="line"/>
      <point x="2167" y="1042" type="line"/>
      <point x="1782" y="1042" type="line"/>
      <point x="1612" y="441" type="line"/>
      <point x="1612" y="161" type="line"/>
      <point x="2128" y="161" type="line"/>
    </contour>
    <contour>
      <point x="213" y="555" type="line"/>
      <point x="608" y="555" type="line"/>
      <point x="608" y="1595" type="line"/>
      <point x="296" y="1595" type="line"/>
      <point x="239" y="1560"/>
      <point x="159" y="1540"/>
      <point x="69" y="1540" type="curve"/>
      <point x="69" y="1396" type="line"/>
      <point x="213" y="1396" type="line"/>
    </contour>
    <contour>
      <point x="789" y="0" type="line"/>
      <point x="1134" y="0" type="line"/>
      <point x="1575" y="1595" type="line"/>
      <point x="1141" y="1595" type="line"/>
    </contour>
  </outline>
</glyph>
<glyph name="onehalf" format="1">
  <advance width="2660"/>
  <unicode hex="00BD"/>
  <outline>
    <contour>
      <point x="1723" y="0" type="line"/>
      <point x="2520" y="0" type="line"/>
      <point x="2520" y="198" type="line"/>
      <point x="2087" y="198" type="line"/>
      <point x="2087" y="270"/>
      <point x="2167" y="309"/>
      <point x="2237" y="340" type="curve" smooth="yes"/>
      <point x="2402" y="414"/>
      <point x="2560" y="500"/>
      <point x="2560" y="742" type="curve" smooth="yes"/>
      <point x="2560" y="1008"/>
      <point x="2406" y="1075"/>
      <point x="2144" y="1075" type="curve" smooth="yes"/>
      <point x="1901" y="1075"/>
      <point x="1716" y="1014"/>
      <point x="1722" y="744" type="curve" smooth="yes"/>
      <point x="1723" y="702" type="line"/>
      <point x="2087" y="702" type="line"/>
      <point x="2087" y="896" type="line"/>
      <point x="2137" y="896" type="line"/>
      <point x="2187" y="896" type="line"/>
      <point x="2187" y="743" type="line" smooth="yes"/>
      <point x="2187" y="689"/>
      <point x="2113" y="659"/>
      <point x="2051" y="634" type="curve" smooth="yes"/>
      <point x="1857" y="556"/>
      <point x="1723" y="441"/>
      <point x="1723" y="179" type="curve" smooth="yes"/>
    </contour>
    <contour>
      <point x="213" y="555" type="line"/>
      <point x="608" y="555" type="line"/>
      <point x="608" y="1595" type="line"/>
      <point x="296" y="1595" type="line"/>
      <point x="239" y="1560"/>
      <point x="159" y="1540"/>
      <point x="69" y="1540" type="curve"/>
      <point x="69" y="1396" type="line"/>
      <point x="213" y="1396" type="line"/>
    </contour>
    <contour>
      <point x="839" y="0" type="line"/>
      <point x="1184" y="0" type="line"/>
      <point x="1625" y="1595" type="line"/>
      <point x="1191" y="1595" type="line"/>
    </contour>
  </outline>
</glyph>
<glyph name="threequarters" format="1">
  <advance width="2856"/>
  <unicode hex="00BE"/>
  <outline>
    <contour>
      <point x="2386" y="0" type="line"/>
      <point x="2745" y="0" type="line"/>
      <point x="2745" y="630" type="line"/>
      <point x="2386" y="630" type="line"/>
      <point x="2386" y="405" type="line"/>
      <point x="2256" y="405" type="line"/>
      <point x="2256" y="441" type="line"/>
      <point x="2425" y="1042" type="line"/>
      <point x="2040" y="1042" type="line"/>
      <point x="1870" y="441" type="line"/>
      <point x="1870" y="161" type="line"/>
      <point x="2386" y="161" type="line"/>
    </contour>
    <contour>
      <point x="1065" y="0" type="line"/>
      <point x="1410" y="0" type="line"/>
      <point x="1851" y="1595" type="line"/>
      <point x="1417" y="1595" type="line"/>
    </contour>
    <contour>
      <point x="560" y="511" type="curve" smooth="yes"/>
      <point x="876" y="511"/>
      <point x="991" y="604"/>
      <point x="991" y="850" type="curve" smooth="yes"/>
      <point x="991" y="958"/>
      <point x="945" y="1044"/>
      <point x="851" y="1080" type="curve"/>
      <point x="934" y="1116"/>
      <point x="989" y="1184"/>
      <point x="989" y="1292" type="curve" smooth="yes"/>
      <point x="989" y="1539"/>
      <point x="849" y="1616"/>
      <point x="559" y="1616" type="curve" smooth="yes"/>
      <point x="279" y="1616"/>
      <point x="138" y="1533"/>
      <point x="138" y="1270" type="curve" smooth="yes"/>
      <point x="138" y="1215" type="line"/>
      <point x="502" y="1215" type="line"/>
      <point x="502" y="1438" type="line"/>
      <point x="557" y="1438" type="line"/>
      <point x="615" y="1438" type="line"/>
      <point x="615" y="1154" type="line"/>
      <point x="444" y="1154" type="line"/>
      <point x="444" y="1006" type="line"/>
      <point x="615" y="1006" type="line"/>
      <point x="615" y="693" type="line"/>
      <point x="555" y="693" type="line"/>
      <point x="502" y="693" type="line"/>
      <point x="502" y="943" type="line"/>
      <point x="138" y="943" type="line"/>
      <point x="138" y="882" type="line" smooth="yes"/>
      <point x="138" y="632"/>
      <point x="264" y="511"/>
    </contour>
  </outline>
</glyph>
<glyph name="AE" format="1">
  <advance width="1896"/>
  <unicode hex="00C6"/>
  <outline>
    <contour>
      <point x="-11" y="0" type="line"/>
      <point x="612" y="0" type="line"/>
      <point x="740" y="348" type="line"/>
      <point x="966" y="348" type="line"/>
      <point x="966" y="0" type="line"/>
      <point x="1895" y="0" type="line"/>
      <point x="1895" y="244" type="line"/>
      <point x="1554" y="244" type="line"/>
      <point x="1554" y="711" type="line"/>
      <point x="1872" y="711" type="line"/>
      <point x="1872" y="961" type="line"/>
      <point x="1554" y="961" type="line"/>
      <point x="1554" y="1354" type="line"/>
      <point x="1895" y="1354" type="line"/>
      <point x="1895" y="1595" type="line"/>
      <point x="652" y="1595" type="line"/>
    </contour>
    <contour>
      <point x="813" y="578" type="line"/>
      <point x="966" y="1051" type="line"/>
      <point x="966" y="578" type="line"/>
    </contour>
    <contour>
      <point x="1105" y="1595" type="move" name="top"/>
    </contour>
  </outline>
</glyph>
<glyph name="multiply" format="1">
  <advance width="1433"/>
  <unicode hex="00D7"/>
  <outline>
    <contour>
      <point x="452" y="4" type="line"/>
      <point x="711" y="279" type="line"/>
      <point x="968" y="4" type="line"/>
      <point x="1317" y="375" type="line"/>
      <point x="1059" y="649" type="line"/>
      <point x="1317" y="924" type="line"/>
      <point x="968" y="1294" type="line"/>
      <point x="711" y="1020" type="line"/>
      <point x="452" y="1294" type="line"/>
      <point x="104" y="924" type="line"/>
      <point x="362" y="649" type="line"/>
      <point x="104" y="375" type="line"/>
    </contour>
  </outline>
</glyph>
<glyph name="Oslash" format="1">
  <advance width="1735"/>
  <unicode hex="00D8"/>
  <outline>
    <contour>
      <point x="1279" y="1307" type="line"/>
      <point x="1537" y="1716" type="line"/>
      <point x="1414" y="1788" type="line"/>
      <point x="1151" y="1371" type="line"/>
    </contour>
    <contour>
      <point x="314.0" y="-144.0" type="line"/>
      <point x="517.0" y="181.0" type="line"/>
      <point x="401.0" y="260.0" type="line"/>
      <point x="195.0" y="-70.0" type="line"/>
    </contour>
    <component base="O"/>
    <contour>
      <point x="852.0" y="1595.0" type="move" name="top"/>
    </contour>
  </outline>
</glyph>
<glyph name="Thorn" format="1">
  <advance width="1694"/>
  <unicode hex="00DE"/>
  <outline>
    <contour>
      <point x="187" y="0" type="line"/>
      <point x="789" y="0" type="line"/>
      <point x="789" y="250" type="line"/>
      <point x="926" y="250" type="line" smooth="yes"/>
      <point x="1272.51" y="250"/>
      <point x="1552" y="334.593"/>
      <point x="1552" y="641" type="curve" smooth="yes"/>
      <point x="1552" y="1022" type="line" smooth="yes"/>
      <point x="1552" y="1363.16"/>
      <point x="1314.27" y="1413"/>
      <point x="926" y="1413" type="curve" smooth="yes"/>
      <point x="789" y="1413" type="line"/>
      <point x="789" y="1599" type="line"/>
      <point x="187" y="1599" type="line"/>
    </contour>
    <contour>
      <point x="789" y="482" type="line"/>
      <point x="789" y="1182" type="line"/>
      <point x="952" y="1182" type="line"/>
      <point x="952" y="832" type="line"/>
      <point x="952" y="482" type="line"/>
    </contour>
  </outline>
</glyph>
<glyph name="germandbls" format="1">
  <advance width="1555"/>
  <unicode hex="00DF"/>
  <outline>
    <contour>
      <point x="173" y="-205" type="line"/>
      <point x="669" y="-205" type="line"/>
      <point x="669" y="1358" type="line"/>
      <point x="787" y="1358" type="line"/>
      <point x="905" y="1358" type="line"/>
      <point x="905" y="981" type="line"/>
      <point x="793" y="981" type="line"/>
      <point x="793" y="750" type="line"/>
      <point x="905" y="750" type="line"/>
      <point x="905" y="472" type="line"/>
      <point x="905" y="194" type="line"/>
      <point x="766" y="194" type="line"/>
      <point x="766" y="-37" type="line"/>
      <point x="850" y="-37" type="line" smooth="yes"/>
      <point x="1130" y="-37"/>
      <point x="1401" y="-16"/>
      <point x="1401" y="258" type="curve" smooth="yes"/>
      <point x="1401" y="553" type="line" smooth="yes"/>
      <point x="1401" y="759"/>
      <point x="1261" y="859"/>
      <point x="1060" y="870" type="curve"/>
      <point x="1257" y="896"/>
      <point x="1332" y="985"/>
      <point x="1332" y="1200" type="curve" smooth="yes"/>
      <point x="1332" y="1505"/>
      <point x="1179" y="1595"/>
      <point x="789" y="1595" type="curve" smooth="yes"/>
      <point x="453" y="1595"/>
      <point x="173" y="1546"/>
      <point x="173" y="1217" type="curve" smooth="yes"/>
    </contour>
  </outline>
</glyph>
<glyph name="ae" format="1">
  <advance width="2189"/>
  <unicode hex="00E6"/>
  <outline>
    <contour>
      <point x="571" y="-36" type="curve" smooth="yes"/>
      <point x="782" y="-36"/>
      <point x="942" y="2"/>
      <point x="1073" y="77" type="curve"/>
      <point x="1157" y="11"/>
      <point x="1268" y="-36"/>
      <point x="1421" y="-36" type="curve" smooth="yes"/>
      <point x="1775" y="-36"/>
      <point x="2061" y="14"/>
      <point x="2068" y="354" type="curve"/>
      <point x="2068" y="501" type="line"/>
      <point x="1497" y="501" type="line"/>
      <point x="1497" y="252" type="line"/>
      <point x="1425" y="252" type="line"/>
      <point x="1353" y="252" type="line"/>
      <point x="1353" y="606" type="line"/>
      <point x="2069" y="606" type="line"/>
      <point x="2069" y="956" type="line" smooth="yes"/>
      <point x="2069" y="1298.41"/>
      <point x="1815.94" y="1345"/>
      <point x="1425" y="1345" type="curve" smooth="yes"/>
      <point x="1276" y="1345"/>
      <point x="1133" y="1290"/>
      <point x="1086" y="1233" type="curve"/>
      <point x="1047" y="1309"/>
      <point x="865" y="1343"/>
      <point x="719" y="1343" type="curve" smooth="yes"/>
      <point x="418" y="1343"/>
      <point x="123" y="1299"/>
      <point x="123" y="1004" type="curve" smooth="yes"/>
      <point x="123" y="965"/>
      <point x="128" y="929"/>
      <point x="134" y="894" type="curve"/>
      <point x="658" y="915" type="line"/>
      <point x="658" y="1054" type="line"/>
      <point x="719.5" y="1054" type="line"/>
      <point x="781" y="1054" type="line"/>
      <point x="781" y="783" type="line"/>
      <point x="455" y="783"/>
      <point x="63" y="793.333"/>
      <point x="63" y="388" type="curve" smooth="yes"/>
      <point x="63" y="92"/>
      <point x="266" y="-36"/>
    </contour>
    <contour>
      <point x="706" y="252" type="line"/>
      <point x="631" y="252" type="line"/>
      <point x="631" y="604" type="line"/>
      <point x="706" y="604" type="line"/>
      <point x="781" y="604" type="line"/>
      <point x="781" y="252" type="line"/>
    </contour>
    <contour>
      <point x="1353" y="801" type="line"/>
      <point x="1353" y="1055" type="line"/>
      <point x="1425" y="1055" type="line"/>
      <point x="1497" y="1055" type="line"/>
      <point x="1497" y="801" type="line"/>
    </contour>
    <contour>
      <point x="1066" y="1300" type="move" name="top"/>
    </contour>
  </outline>
</glyph>
<glyph name="eth" format="1">
  <advance width="1555"/>
  <unicode hex="00F0"/>
  <outline>
    <contour>
      <point x="771" y="-37" type="curve" smooth="yes"/>
      <point x="1292.19" y="-37"/>
      <point x="1400" y="305.497"/>
      <point x="1400" y="807" type="curve" smooth="yes"/>
      <point x="1400" y="1163"/>
      <point x="1237" y="1402"/>
      <point x="1054" y="1578" type="curve"/>
      <point x="1222" y="1694" type="line"/>
      <point x="1151" y="1817" type="line"/>
      <point x="943" y="1674" type="line"/>
      <point x="830" y="1762"/>
      <point x="711" y="1832"/>
      <point x="574" y="1889" type="curve"/>
      <point x="574" y="1889"/>
      <point x="349" y="1546"/>
      <point x="349" y="1546" type="curve"/>
      <point x="466.056" y="1483.1"/>
      <point x="519" y="1449"/>
      <point x="570" y="1416" type="curve"/>
      <point x="365" y="1275" type="line"/>
      <point x="435" y="1151" type="line"/>
      <point x="687" y="1324" type="line"/>
      <point x="744" y="1273"/>
      <point x="826" y="1199"/>
      <point x="826" y="1097" type="curve"/>
      <point x="686" y="1097" type="line" smooth="yes"/>
      <point x="295.659" y="1097"/>
      <point x="141.55" y="918.723"/>
      <point x="135.304" y="560.9" type="curve" smooth="yes"/>
      <point x="135.098" y="549.104"/>
      <point x="135" y="537.137"/>
      <point x="135" y="525" type="curve" smooth="yes"/>
      <point x="135" y="120.173"/>
      <point x="357.491" y="-37"/>
    </contour>
    <contour>
      <point x="764" y="238" type="line"/>
      <point x="703" y="238" type="line"/>
      <point x="703" y="828" type="line"/>
      <point x="764" y="828" type="line"/>
      <point x="825" y="828" type="line"/>
      <point x="825" y="238" type="line"/>
    </contour>
  </outline>
</glyph>
<glyph name="oslash" format="1">
  <advance width="1631"/>
  <unicode hex="00F8"/>
  <outline>
    <contour>
      <point x="193" y="-39" type="line"/>
      <point x="193" y="-39"/>
      <point x="1485" y="1286"/>
      <point x="1485" y="1286" type="curve"/>
      <point x="1427" y="1344" type="line"/>
      <point x="1427" y="1344"/>
      <point x="135" y="19"/>
      <point x="135" y="19" type="curve"/>
    </contour>
    <component base="o"/>
    <contour>
      <point x="812" y="1300" type="move" name="top"/>
    </contour>
  </outline>
</glyph>
<glyph name="thorn" format="1">
  <advance width="1593"/>
  <unicode hex="00FE"/>
  <outline>
    <contour>
      <point x="173" y="-409" type="line"/>
      <point x="744" y="-409" type="line"/>
      <point x="744" y="78" type="line"/>
      <point x="790.732" y="13.7436"/>
      <point x="884.28" y="-24"/>
      <point x="1017" y="-24" type="curve" smooth="yes"/>
      <point x="1313.38" y="-24"/>
      <point x="1431" y="111.571"/>
      <point x="1431" y="390" type="curve" smooth="yes"/>
      <point x="1431" y="908" type="line" smooth="yes"/>
      <point x="1431" y="1088"/>
      <point x="1313.47" y="1323"/>
      <point x="1017" y="1323" type="curve" smooth="yes"/>
      <point x="889" y="1323"/>
      <point x="783" y="1307"/>
      <point x="744" y="1227" type="curve"/>
      <point x="744" y="1602" type="line"/>
      <point x="173" y="1602" type="line"/>
    </contour>
    <contour>
      <point x="829.5" y="201" type="line"/>
      <point x="746" y="201" type="line"/>
      <point x="746" y="1107" type="line"/>
      <point x="829.5" y="1107" type="line"/>
      <point x="913" y="1107" type="line"/>
      <point x="913" y="201" type="line"/>
    </contour>
  </outline>
</glyph>
<glyph name="dotlessi" format="1">
  <advance width="992"/>
  <unicode hex="0131"/>
  <outline>
    <contour>
      <point x="216" y="1300" type="line"/>
      <point x="216" y="0" type="line"/>
      <point x="785" y="0" type="line"/>
      <point x="785" y="1300" type="line"/>
    </contour>
    <contour>
      <point x="489" y="1300" type="move" name="top"/>
    </contour>
    <contour>
      <point x="536" y="0" type="move" name="ogonek"/>
    </contour>
  </outline>
</glyph>
<glyph name="Lslash" format="1">
  <advance width="1248"/>
  <unicode hex="0141"/>
  <outline>
    <contour>
      <point x="38" y="600" type="line"/>
      <point x="996" y="962" type="line"/>
      <point x="996" y="1300" type="line"/>
      <point x="38" y="940" type="line"/>
    </contour>
    <component base="L"/>
  </outline>
</glyph>
<glyph name="lslash" format="1">
  <advance width="966"/>
  <unicode hex="0142"/>
  <outline>
    <contour>
      <point x="65" y="630" type="line"/>
      <point x="958" y="962" type="line"/>
      <point x="958" y="1300" type="line"/>
      <point x="65" y="970" type="line"/>
    </contour>
    <component base="l"/>
  </outline>
</glyph>
<glyph name="OE" format="1">
  <advance width="1869"/>
  <unicode hex="0152"/>
  <outline>
    <contour>
      <point x="755" y="-1" type="curve"/>
      <point x="755" y="-1"/>
      <point x="1801" y="0"/>
      <point x="1801" y="0" type="curve"/>
      <point x="1801" y="244" type="line"/>
      <point x="1457" y="244" type="line"/>
      <point x="1457" y="711" type="line"/>
      <point x="1777" y="711" type="line"/>
      <point x="1777" y="961" type="line"/>
      <point x="1457" y="961" type="line"/>
      <point x="1457" y="1354" type="line"/>
      <point x="1801" y="1354" type="line"/>
      <point x="1801" y="1595" type="line"/>
      <point x="755" y="1595" type="line" smooth="yes"/>
      <point x="377.168942641" y="1595.0"/>
      <point x="125.0" y="1557.6455483"/>
      <point x="125" y="1227" type="curve" smooth="yes"/>
      <point x="125" y="371" type="line" smooth="yes"/>
      <point x="125.0" y="33.9052330259"/>
      <point x="366.609259827" y="-1.0"/>
    </contour>
    <contour>
      <point x="768.0" y="232.0" type="line"/>
      <point x="711" y="232" type="line"/>
      <point x="711" y="1363" type="line"/>
      <point x="768.0" y="1363.0" type="line"/>
      <point x="825" y="1363" type="line"/>
      <point x="825" y="232" type="line"/>
    </contour>
    <contour>
      <point x="949" y="1595" type="move" name="top"/>
    </contour>
  </outline>
</glyph>
<glyph name="oe" format="1">
  <advance width="2331"/>
  <unicode hex="0153"/>
  <outline>
    <contour>
      <point x="1530" y="-22.0001" type="curve" smooth="yes"/>
      <point x="1972" y="-22.0001"/>
      <point x="2191" y="73.9999"/>
      <point x="2191" y="380" type="curve" smooth="yes"/>
      <point x="2191" y="412"/>
      <point x="2188" y="445"/>
      <point x="2183" y="483" type="curve"/>
      <point x="1612" y="483" type="line"/>
      <point x="1612" y="199" type="line"/>
      <point x="1528.5" y="199.0" type="line"/>
      <point x="1445" y="199" type="line"/>
      <point x="1445" y="604" type="line"/>
      <point x="2183" y="604" type="line"/>
      <point x="2183" y="954" type="line" smooth="yes"/>
      <point x="2183" y="1309"/>
      <point x="1821" y="1322"/>
      <point x="1528" y="1322" type="curve" smooth="yes"/>
      <point x="1409.38" y="1322"/>
      <point x="1246" y="1289"/>
      <point x="1162" y="1231" type="curve"/>
      <point x="1092" y="1288"/>
      <point x="918" y="1322"/>
      <point x="790" y="1322" type="curve" smooth="yes"/>
      <point x="493" y="1322"/>
      <point x="136" y="1300"/>
      <point x="136" y="953" type="curve" smooth="yes"/>
      <point x="136" y="348" type="line" smooth="yes"/>
      <point x="136" y="-12"/>
      <point x="471" y="-22"/>
      <point x="789" y="-22" type="curve" smooth="yes"/>
      <point x="916" y="-22"/>
      <point x="1096" y="8"/>
      <point x="1169" y="65" type="curve"/>
      <point x="1250" y="10"/>
      <point x="1409" y="-22.0001"/>
    </contour>
    <contour>
      <point x="790.0" y="228.0" type="line"/>
      <point x="707" y="228" type="line"/>
      <point x="707" y="1105" type="line"/>
      <point x="790.0" y="1105.0" type="line"/>
      <point x="873" y="1105" type="line"/>
      <point x="873" y="228" type="line"/>
    </contour>
    <contour>
      <point x="1445" y="777" type="line"/>
      <point x="1445" y="1105" type="line"/>
      <point x="1529.0" y="1105.0" type="line"/>
      <point x="1613" y="1105" type="line"/>
      <point x="1613" y="777" type="line"/>
    </contour>
  </outline>
</glyph>
<glyph name="florin" format="1">
  <advance width="1081"/>
  <unicode hex="0192"/>
  <outline>
    <contour>
      <point x="386" y="-319" type="curve" smooth="yes"/>
      <point x="572" y="-315"/>
      <point x="599" y="-222"/>
      <point x="599" y="-56" type="curve" smooth="yes"/>
      <point x="599" y="757" type="line"/>
      <point x="797" y="757" type="line"/>
      <point x="797" y="887" type="line"/>
      <point x="599" y="887" type="line"/>
      <point x="598" y="1256" type="line" smooth="yes"/>
      <point x="598" y="1372"/>
      <point x="598" y="1392"/>
      <point x="729" y="1392" type="curve" smooth="yes"/>
      <point x="755" y="1392"/>
      <point x="781" y="1391"/>
      <point x="807" y="1389" type="curve"/>
      <point x="807" y="1543" type="line"/>
      <point x="744" y="1555"/>
      <point x="684" y="1561"/>
      <point x="631" y="1561" type="curve" smooth="yes"/>
      <point x="469" y="1561"/>
      <point x="400" y="1484"/>
      <point x="401" y="1259" type="curve" smooth="yes"/>
      <point x="402" y="887" type="line"/>
      <point x="240" y="887" type="line"/>
      <point x="240" y="757" type="line"/>
      <point x="402" y="757" type="line"/>
      <point x="402" y="-167" type="line"/>
      <point x="234" y="-167" type="line"/>
      <point x="234" y="-299" type="line"/>
      <point x="324" y="-315"/>
      <point x="358" y="-319"/>
    </contour>
  </outline>
</glyph>
<glyph name="circumflex" format="1">
  <advance width="1318"/>
  <unicode hex="02C6"/>
  <outline>
    <contour>
      <point x="1191.62" y="1428.62" type="curve" smooth="yes"/>
      <point x="1212.84" y="1449.37"/>
      <point x="1217.88" y="1486.03"/>
      <point x="1192" y="1527" type="curve" smooth="yes"/>
      <point x="929" y="1936" type="line" smooth="yes"/>
      <point x="896" y="1987"/>
      <point x="841" y="2008"/>
      <point x="788" y="2008" type="curve" smooth="yes"/>
      <point x="733" y="2008"/>
      <point x="676" y="1984"/>
      <point x="645" y="1936" type="curve" smooth="yes"/>
      <point x="382" y="1527" type="line" smooth="yes"/>
      <point x="355.2" y="1484.57"/>
      <point x="361.77" y="1449.82"/>
      <point x="383.5" y="1430.12" type="curve" smooth="yes"/>
      <point x="406.833" y="1408.98"/>
      <point x="446.941" y="1404.18"/>
      <point x="484" y="1433" type="curve" smooth="yes"/>
      <point x="787" y="1668" type="line"/>
      <point x="1090" y="1433" type="line" smooth="yes"/>
      <point x="1127.47" y="1403.42"/>
      <point x="1168.55" y="1406.06"/>
    </contour>
    <contour>
      <point x="787" y="1300" type="move" name="_top"/>
    </contour>
  </outline>
</glyph>
<glyph name="caron" format="1">
  <advance width="1318"/>
  <unicode hex="02C7"/>
  <outline>
    <contour>
      <point x="788" y="1403" type="curve" smooth="yes"/>
      <point x="841" y="1403"/>
      <point x="896" y="1424"/>
      <point x="929" y="1475" type="curve" smooth="yes"/>
      <point x="1192" y="1884" type="line" smooth="yes"/>
      <point x="1218" y="1925"/>
      <point x="1213" y="1962"/>
      <point x="1192" y="1982" type="curve" smooth="yes"/>
      <point x="1169" y="2005"/>
      <point x="1127" y="2008"/>
      <point x="1090" y="1978" type="curve" smooth="yes"/>
      <point x="787" y="1743" type="line"/>
      <point x="484" y="1978" type="line" smooth="yes"/>
      <point x="447" y="2007"/>
      <point x="407" y="2002"/>
      <point x="384" y="1981" type="curve" smooth="yes"/>
      <point x="362" y="1961"/>
      <point x="355" y="1926"/>
      <point x="382" y="1884" type="curve" smooth="yes"/>
      <point x="645" y="1475" type="line" smooth="yes"/>
      <point x="676" y="1427"/>
      <point x="733" y="1403"/>
    </contour>
    <contour>
      <point x="787" y="1300" type="move" name="_top"/>
    </contour>
  </outline>
</glyph>
<glyph name="breve" format="1">
  <advance width="1371"/>
  <unicode hex="02D8"/>
  <outline>
    <contour>
      <point x="991" y="1879" type="line"/>
      <point x="991" y="1757"/>
      <point x="939" y="1701"/>
      <point x="826" y="1701" type="curve" smooth="yes"/>
      <point x="713" y="1701"/>
      <point x="661" y="1757"/>
      <point x="661" y="1879" type="curve"/>
      <point x="364" y="1879" type="line"/>
      <point x="364" y="1577"/>
      <point x="509" y="1438"/>
      <point x="826" y="1438" type="curve" smooth="yes"/>
      <point x="1143" y="1438"/>
      <point x="1288" y="1577"/>
      <point x="1288" y="1879" type="curve"/>
    </contour>
    <contour>
      <point x="820" y="1300" type="move" name="_top"/>
    </contour>
  </outline>
</glyph>
<glyph name="dotaccent" format="1">
  <advance width="1127"/>
  <unicode hex="02D9"/>
  <outline>
    <contour>
      <point x="642" y="1457" type="curve" smooth="yes"/>
      <point x="817" y="1457"/>
      <point x="913" y="1517"/>
      <point x="913" y="1657" type="curve" smooth="yes"/>
      <point x="913" y="1797"/>
      <point x="817" y="1857"/>
      <point x="642" y="1857" type="curve" smooth="yes"/>
      <point x="467" y="1857"/>
      <point x="371" y="1797"/>
      <point x="371" y="1657" type="curve" smooth="yes"/>
      <point x="371" y="1517"/>
      <point x="467" y="1457"/>
    </contour>
    <contour>
      <point x="642" y="1300" type="move" name="_top"/>
    </contour>
  </outline>
</glyph>
<glyph name="ring" format="1">
  <advance width="1188"/>
  <unicode hex="02DA"/>
  <outline>
    <contour>
      <point x="492" y="2072"/>
      <point x="364" y="1948"/>
      <point x="364" y="1750" type="curve" smooth="yes"/>
      <point x="364" y="1553"/>
      <point x="492" y="1430"/>
      <point x="696" y="1430" type="curve" smooth="yes"/>
      <point x="901" y="1430"/>
      <point x="1030" y="1553"/>
      <point x="1030" y="1750" type="curve" smooth="yes"/>
      <point x="1030" y="1948"/>
      <point x="901" y="2072"/>
      <point x="696" y="2072" type="curve" smooth="yes"/>
    </contour>
    <contour>
      <point x="786" y="1898"/>
      <point x="842" y="1841"/>
      <point x="842" y="1750" type="curve" smooth="yes"/>
      <point x="842" y="1659"/>
      <point x="786" y="1603"/>
      <point x="696" y="1603" type="curve" smooth="yes"/>
      <point x="605" y="1603"/>
      <point x="548" y="1659"/>
      <point x="548" y="1750" type="curve" smooth="yes"/>
      <point x="548" y="1841"/>
      <point x="605" y="1898"/>
      <point x="696" y="1898" type="curve" smooth="yes"/>
    </contour>
    <contour>
      <point x="695" y="1300" type="move" name="_top"/>
    </contour>
  </outline>
</glyph>
<glyph name="ogonek" format="1">
  <advance width="1073"/>
  <unicode hex="02DB"/>
  <outline>
    <contour>
      <point x="590" y="0" type="line"/>
      <point x="411" y="-130"/>
      <point x="364" y="-249"/>
      <point x="364" y="-330" type="curve" smooth="yes"/>
      <point x="364" y="-479"/>
      <point x="518" y="-586"/>
      <point x="724" y="-586" type="curve" smooth="yes"/>
      <point x="798" y="-586"/>
      <point x="864" y="-565"/>
      <point x="901" y="-551" type="curve"/>
      <point x="861" y="-346" type="line"/>
      <point x="837" y="-353"/>
      <point x="810" y="-357"/>
      <point x="784" y="-357" type="curve" smooth="yes"/>
      <point x="700" y="-357"/>
      <point x="621" y="-317"/>
      <point x="621" y="-219" type="curve" smooth="yes"/>
      <point x="621" y="-157"/>
      <point x="660" y="-85"/>
      <point x="751" y="0" type="curve"/>
    </contour>
    <contour>
      <point x="661" y="0" type="move" name="_ogonek"/>
    </contour>
  </outline>
</glyph>
<glyph name="tilde" format="1">
  <advance width="1463"/>
  <unicode hex="02DC"/>
  <outline>
    <contour>
      <point x="1012" y="1419" type="curve" smooth="yes"/>
      <point x="1178" y="1419"/>
      <point x="1296" y="1635"/>
      <point x="1316" y="1751" type="curve"/>
      <point x="1195" y="1871" type="line"/>
      <point x="1144" y="1795"/>
      <point x="1122" y="1752"/>
      <point x="1035" y="1752" type="curve" smooth="yes"/>
      <point x="929" y="1752"/>
      <point x="782" y="1893"/>
      <point x="598" y="1893" type="curve" smooth="yes"/>
      <point x="375" y="1893"/>
      <point x="263" y="1766"/>
      <point x="206" y="1581" type="curve"/>
      <point x="307" y="1460" type="line"/>
      <point x="357" y="1531"/>
      <point x="419" y="1578"/>
      <point x="519" y="1578" type="curve" smooth="yes"/>
      <point x="706" y="1578"/>
      <point x="828" y="1419"/>
    </contour>
    <contour>
      <point x="755" y="1300" type="move" name="_top"/>
    </contour>
  </outline>
</glyph>
<glyph name="hungarumlaut" format="1">
  <advance width="1777"/>
  <unicode hex="02DD"/>
  <outline>
    <contour>
      <point x="466" y="1376" type="curve" smooth="yes"/>
      <point x="671" y="1438"/>
      <point x="958" y="1510"/>
      <point x="1062" y="1570" type="curve" smooth="yes"/>
      <point x="1143" y="1617"/>
      <point x="1178" y="1687"/>
      <point x="1178" y="1752" type="curve" smooth="yes"/>
      <point x="1178" y="1846"/>
      <point x="1107" y="1930"/>
      <point x="1004" y="1930" type="curve" smooth="yes"/>
      <point x="966" y="1930"/>
      <point x="924" y="1919"/>
      <point x="879" y="1893" type="curve" smooth="yes"/>
      <point x="778" y="1835"/>
      <point x="568" y="1629"/>
      <point x="405" y="1480" type="curve" smooth="yes"/>
      <point x="366" y="1446"/>
      <point x="364" y="1411"/>
      <point x="383" y="1391" type="curve" smooth="yes"/>
      <point x="399" y="1373"/>
      <point x="432" y="1363"/>
    </contour>
    <contour>
      <point x="1157" y="1376" type="curve" smooth="yes"/>
      <point x="1362" y="1438"/>
      <point x="1649" y="1510"/>
      <point x="1753" y="1570" type="curve" smooth="yes"/>
      <point x="1834" y="1617"/>
      <point x="1869" y="1687"/>
      <point x="1869" y="1752" type="curve" smooth="yes"/>
      <point x="1869" y="1846"/>
      <point x="1798" y="1930"/>
      <point x="1695" y="1930" type="curve" smooth="yes"/>
      <point x="1657" y="1930"/>
      <point x="1615" y="1919"/>
      <point x="1570" y="1893" type="curve" smooth="yes"/>
      <point x="1469" y="1835"/>
      <point x="1259" y="1629"/>
      <point x="1096" y="1480" type="curve" smooth="yes"/>
      <point x="1056" y="1445"/>
      <point x="1055" y="1409"/>
      <point x="1075" y="1389" type="curve" smooth="yes"/>
      <point x="1092" y="1372"/>
      <point x="1124" y="1364"/>
    </contour>
    <contour>
      <point x="896" y="1300" type="move" name="_top"/>
    </contour>
  </outline>
</glyph>
<glyph name="uni0307" format="1">
  <advance width="943"/>
  <unicode hex="0307"/>
  <outline>
    <contour>
      <point x="469" y="1216" type="curve" smooth="yes"/>
      <point x="571" y="1216"/>
      <point x="673" y="1286"/>
      <point x="673" y="1426" type="curve" smooth="yes"/>
      <point x="673" y="1566"/>
      <point x="571" y="1636"/>
      <point x="469" y="1636" type="curve" smooth="yes"/>
      <point x="367" y="1636"/>
      <point x="265" y="1566"/>
      <point x="265" y="1426" type="curve" smooth="yes"/>
      <point x="265" y="1286"/>
      <point x="367" y="1216"/>
    </contour>
    <contour>
      <point x="464" y="1300" type="move" name="_top"/>
    </contour>
  </outline>
</glyph>
<glyph name="dblgravecmb" format="1">
  <advance width="1777"/>
  <unicode hex="030F"/>
  <outline>
    <contour>
      <point x="1076" y="1376" type="curve" smooth="yes"/>
      <point x="1109.306907" y="1363.88839746"/>
      <point x="1140.53990888" y="1372.14744656"/>
      <point x="1157.70257003" y="1389.00269406" type="curve" smooth="yes"/>
      <point x="1178.36029691" y="1409.29040447"/>
      <point x="1177.26319297" y="1444.76970615"/>
      <point x="1137" y="1480" type="curve" smooth="yes"/>
      <point x="974" y="1629"/>
      <point x="764" y="1835"/>
      <point x="663" y="1893" type="curve" smooth="yes"/>
      <point x="618" y="1919"/>
      <point x="576" y="1930"/>
      <point x="538" y="1930" type="curve" smooth="yes"/>
      <point x="435" y="1930"/>
      <point x="364" y="1846"/>
      <point x="364" y="1752" type="curve" smooth="yes"/>
      <point x="364" y="1687"/>
      <point x="399" y="1617"/>
      <point x="480" y="1570" type="curve" smooth="yes"/>
      <point x="584" y="1510"/>
      <point x="871" y="1438"/>
    </contour>
    <contour>
      <point x="1767" y="1376" type="curve" smooth="yes"/>
      <point x="1801.38201317" y="1363.49744976"/>
      <point x="1833.57320761" y="1372.59523918"/>
      <point x="1850.31924178" y="1390.66653269" type="curve" smooth="yes"/>
      <point x="1869.32158443" y="1411.17269602"/>
      <point x="1867.18343266" y="1445.71449642"/>
      <point x="1828" y="1480" type="curve" smooth="yes"/>
      <point x="1665" y="1629"/>
      <point x="1455" y="1835"/>
      <point x="1354" y="1893" type="curve" smooth="yes"/>
      <point x="1309" y="1919"/>
      <point x="1267" y="1930"/>
      <point x="1229" y="1930" type="curve" smooth="yes"/>
      <point x="1126" y="1930"/>
      <point x="1055" y="1846"/>
      <point x="1055" y="1752" type="curve" smooth="yes"/>
      <point x="1055" y="1687"/>
      <point x="1090" y="1617"/>
      <point x="1171" y="1570" type="curve" smooth="yes"/>
      <point x="1275" y="1510"/>
      <point x="1562" y="1438"/>
    </contour>
    <contour>
      <point x="1316" y="1300" type="move" name="_top"/>
    </contour>
  </outline>
</glyph>
<glyph name="breveinvertedcomb" format="1">
  <advance width="1371"/>
  <unicode hex="0311"/>
  <outline>
    <contour>
      <point x="364" y="1438" type="curve"/>
      <point x="661" y="1438" type="line"/>
      <point x="661" y="1560"/>
      <point x="713" y="1616"/>
      <point x="826" y="1616" type="curve" smooth="yes"/>
      <point x="939" y="1616"/>
      <point x="991" y="1560"/>
      <point x="991" y="1438" type="curve"/>
      <point x="1288" y="1438" type="line"/>
      <point x="1288" y="1740"/>
      <point x="1143" y="1879"/>
      <point x="826" y="1879" type="curve" smooth="yes"/>
      <point x="509" y="1879"/>
      <point x="364" y="1740"/>
    </contour>
    <contour>
      <point x="820" y="1300" type="move" name="_top"/>
    </contour>
  </outline>
</glyph>
<glyph name="Delta" format="1">
  <advance width="1544"/>
  <unicode hex="0394"/>
  <outline>
    <contour>
      <point x="106" y="0" type="line"/>
      <point x="1481" y="0" type="line"/>
      <point x="894" y="1594" type="line"/>
      <point x="683" y="1594" type="line"/>
    </contour>
    <contour>
      <point x="319" y="244" type="line"/>
      <point x="715" y="1391" type="line"/>
      <point x="1113" y="244" type="line"/>
    </contour>
  </outline>
</glyph>
<glyph name="Sigma" format="1">
  <advance width="1420"/>
  <unicode hex="03A3"/>
  <outline>
    <contour>
      <point x="177" y="0" type="line"/>
      <point x="1324" y="0" type="line"/>
      <point x="1324" y="301" type="line"/>
      <point x="770" y="301" type="line"/>
      <point x="1141" y="736" type="line"/>
      <point x="1141" y="827" type="line"/>
      <point x="753" y="1307" type="line"/>
      <point x="1276" y="1307" type="line"/>
      <point x="1276" y="1595" type="line"/>
      <point x="177" y="1595" type="line"/>
      <point x="177" y="1308" type="line"/>
      <point x="575" y="835" type="line"/>
      <point x="177" y="320" type="line"/>
    </contour>
  </outline>
</glyph>
<glyph name="Omega" format="1">
  <advance width="1914"/>
  <unicode hex="03A9"/>
  <outline>
    <contour>
      <point x="106" y="0" type="line"/>
      <point x="865" y="0" type="line"/>
      <point x="875" y="260" type="line"/>
      <point x="623" y="439"/>
      <point x="528" y="573"/>
      <point x="528" y="856" type="curve" smooth="yes"/>
      <point x="528" y="1164"/>
      <point x="686" y="1302"/>
      <point x="957" y="1302" type="curve" smooth="yes"/>
      <point x="1229" y="1302"/>
      <point x="1386" y="1164"/>
      <point x="1386" y="856" type="curve" smooth="yes"/>
      <point x="1386" y="573"/>
      <point x="1303" y="439"/>
      <point x="1040" y="260" type="curve"/>
      <point x="1049" y="0" type="line"/>
      <point x="1808" y="0" type="line"/>
      <point x="1808" y="269" type="line"/>
      <point x="1358" y="269" type="line"/>
      <point x="1623" y="375"/>
      <point x="1780" y="547"/>
      <point x="1780" y="866" type="curve" smooth="yes"/>
      <point x="1780" y="1382"/>
      <point x="1420" y="1614"/>
      <point x="957" y="1614" type="curve" smooth="yes"/>
      <point x="494" y="1614"/>
      <point x="134" y="1382"/>
      <point x="134" y="866" type="curve" smooth="yes"/>
      <point x="134" y="547"/>
      <point x="291" y="375"/>
      <point x="556" y="269" type="curve"/>
      <point x="106" y="269" type="line"/>
    </contour>
  </outline>
</glyph>
<glyph name="mu" format="1">
  <advance width="1647"/>
  <unicode hex="03BC"/>
  <outline>
    <contour>
      <point x="903" y="1300" type="line"/>
      <point x="903" y="233" type="line"/>
      <point x="818" y="233" type="line" smooth="yes"/>
      <point x="737" y="233" type="line"/>
      <point x="737" y="1300" type="line"/>
      <point x="165" y="1300" type="line"/>
      <point x="165" y="-250" type="line"/>
      <point x="737" y="-250" type="line"/>
      <point x="737" y="-9" type="line"/>
      <point x="818" y="14"/>
      <point x="887" y="56"/>
      <point x="921" y="112" type="curve"/>
      <point x="958" y="0" type="line"/>
      <point x="1475" y="0" type="line"/>
      <point x="1475" y="1300" type="line"/>
    </contour>
  </outline>
</glyph>
<glyph name="pi" format="1">
  <advance width="1746"/>
  <unicode hex="03C0"/>
  <outline>
    <contour>
      <point x="1411" y="-33" type="curve" smooth="yes"/>
      <point x="1493" y="-33"/>
      <point x="1594" y="-9"/>
      <point x="1683" y="56" type="curve"/>
      <point x="1683" y="230" type="line"/>
      <point x="1630" y="213"/>
      <point x="1563" y="204"/>
      <point x="1518" y="208" type="curve" smooth="yes"/>
      <point x="1443" y="215"/>
      <point x="1370" y="268"/>
      <point x="1361" y="414" type="curve" smooth="yes"/>
      <point x="1351" y="583"/>
      <point x="1378" y="746"/>
      <point x="1452" y="1002" type="curve"/>
      <point x="1663" y="1002" type="line"/>
      <point x="1677" y="1300" type="line"/>
      <point x="529" y="1300" type="line" smooth="yes"/>
      <point x="231" y="1300"/>
      <point x="95" y="1108"/>
      <point x="95" y="837" type="curve"/>
      <point x="249" y="837" type="line"/>
      <point x="262" y="932"/>
      <point x="312" y="1002"/>
      <point x="410" y="1002" type="curve" smooth="yes"/>
      <point x="496" y="1002" type="line"/>
      <point x="395" y="462" type="line" smooth="yes"/>
      <point x="354" y="243"/>
      <point x="267" y="241"/>
      <point x="158" y="241" type="curve"/>
      <point x="158" y="0" type="line"/>
      <point x="588" y="0"/>
      <point x="742" y="108"/>
      <point x="766" y="382" type="curve" smooth="yes"/>
      <point x="820" y="1002" type="line"/>
      <point x="1167" y="1002" type="line"/>
      <point x="1088" y="825"/>
      <point x="973" y="610"/>
      <point x="980" y="349" type="curve" smooth="yes"/>
      <point x="987" y="88"/>
      <point x="1209" y="-33"/>
    </contour>
  </outline>
</glyph>
<glyph name="endash" format="1">
  <advance width="1310"/>
  <unicode hex="2013"/>
  <outline>
    <contour>
      <point x="234" y="461" type="line"/>
      <point x="1067" y="461" type="line"/>
      <point x="1067" y="897" type="line"/>
      <point x="234" y="897" type="line"/>
    </contour>
  </outline>
</glyph>
<glyph name="emdash" format="1">
  <advance width="1907"/>
  <unicode hex="2014"/>
  <outline>
    <contour>
      <point x="104" y="461" type="line"/>
      <point x="1789" y="461" type="line"/>
      <point x="1789" y="897" type="line"/>
      <point x="104" y="897" type="line"/>
    </contour>
  </outline>
</glyph>
<glyph name="quoteleft" format="1">
  <advance width="997"/>
  <unicode hex="2018"/>
  <outline>
    <contour>
      <point x="508" y="987" type="curve" smooth="yes"/>
      <point x="605" y="987"/>
      <point x="702" y="1054"/>
      <point x="702" y="1187" type="curve" smooth="yes"/>
      <point x="702" y="1316"/>
      <point x="616" y="1386"/>
      <point x="523" y="1396" type="curve"/>
      <point x="529" y="1473"/>
      <point x="599" y="1517"/>
      <point x="679" y="1518" type="curve"/>
      <point x="679" y="1627" type="line"/>
      <point x="409" y="1627"/>
      <point x="288" y="1443.47"/>
      <point x="288" y="1227" type="curve" smooth="yes"/>
      <point x="288" y="1098"/>
      <point x="357" y="987"/>
    </contour>
  </outline>
</glyph>
<glyph name="quoteright" format="1">
  <advance width="966"/>
  <unicode hex="2019"/>
  <outline>
    <contour>
      <point x="295" y="990" type="line"/>
      <point x="539" y="990"/>
      <point x="686" y="1173.53"/>
      <point x="686" y="1390" type="curve" smooth="yes"/>
      <point x="686" y="1519"/>
      <point x="620" y="1630"/>
      <point x="476" y="1630" type="curve" smooth="yes"/>
      <point x="374" y="1630"/>
      <point x="272" y="1563"/>
      <point x="272" y="1430" type="curve" smooth="yes"/>
      <point x="272" y="1301"/>
      <point x="358" y="1231"/>
      <point x="451" y="1221" type="curve"/>
      <point x="445" y="1144"/>
      <point x="375" y="1100"/>
      <point x="295" y="1099" type="curve"/>
    </contour>
  </outline>
</glyph>
<glyph name="quotesinglbase" format="1">
  <advance width="974"/>
  <unicode hex="201A"/>
  <outline>
    <contour>
      <point x="538" y="-350" type="curve" smooth="yes"/>
      <point x="583" y="-160"/>
      <point x="676" y="98"/>
      <point x="676" y="206" type="curve" smooth="yes"/>
      <point x="676" y="322"/>
      <point x="578" y="383"/>
      <point x="481" y="383" type="curve" smooth="yes"/>
      <point x="387" y="383"/>
      <point x="295" y="326"/>
      <point x="295" y="208" type="curve" smooth="yes"/>
      <point x="295" y="103"/>
      <point x="383" y="-156"/>
      <point x="428" y="-350" type="curve"/>
      <point x="439" y="-390"/>
      <point x="461" y="-409"/>
      <point x="483" y="-409" type="curve" smooth="yes"/>
      <point x="505" y="-409"/>
      <point x="529" y="-389"/>
    </contour>
  </outline>
</glyph>
<glyph name="quotedblleft" format="1">
  <advance width="1341"/>
  <unicode hex="201C"/>
  <outline>
    <contour>
      <point x="421" y="987" type="curve" smooth="yes"/>
      <point x="523" y="987"/>
      <point x="625" y="1054"/>
      <point x="625" y="1187" type="curve" smooth="yes"/>
      <point x="625" y="1316"/>
      <point x="539" y="1386"/>
      <point x="446" y="1396" type="curve"/>
      <point x="452" y="1473"/>
      <point x="522" y="1517"/>
      <point x="602" y="1518" type="curve"/>
      <point x="602" y="1627" type="line"/>
      <point x="330" y="1628"/>
      <point x="211" y="1443.47"/>
      <point x="211" y="1227" type="curve" smooth="yes"/>
      <point x="211" y="1098"/>
      <point x="277" y="987"/>
    </contour>
    <contour>
      <point x="924" y="987" type="curve" smooth="yes"/>
      <point x="1026" y="987"/>
      <point x="1128" y="1054"/>
      <point x="1128" y="1187" type="curve" smooth="yes"/>
      <point x="1128" y="1316"/>
      <point x="1042" y="1386"/>
      <point x="949" y="1396" type="curve"/>
      <point x="955" y="1473"/>
      <point x="1025" y="1517"/>
      <point x="1105" y="1518" type="curve"/>
      <point x="1105" y="1627" type="line"/>
      <point x="833" y="1627"/>
      <point x="714" y="1443.47"/>
      <point x="714" y="1227" type="curve" smooth="yes"/>
      <point x="714" y="1098"/>
      <point x="780" y="987"/>
    </contour>
  </outline>
</glyph>
<glyph name="quotedblright" format="1">
  <advance width="1295"/>
  <unicode hex="201D"/>
  <outline>
    <contour>
      <point x="211" y="990" type="line"/>
      <point x="311" y="976.667"/>
      <point x="602" y="1173.53"/>
      <point x="602" y="1390" type="curve" smooth="yes"/>
      <point x="602" y="1519"/>
      <point x="536" y="1630"/>
      <point x="392" y="1630" type="curve" smooth="yes"/>
      <point x="290" y="1630"/>
      <point x="188" y="1563"/>
      <point x="188" y="1430" type="curve" smooth="yes"/>
      <point x="188" y="1301"/>
      <point x="274" y="1231"/>
      <point x="367" y="1221" type="curve"/>
      <point x="361" y="1144"/>
      <point x="291" y="1100"/>
      <point x="211" y="1099" type="curve"/>
    </contour>
    <contour>
      <point x="714" y="990" type="line"/>
      <point x="814" y="976.667"/>
      <point x="1105" y="1173.53"/>
      <point x="1105" y="1390" type="curve" smooth="yes"/>
      <point x="1105" y="1519"/>
      <point x="1039" y="1630"/>
      <point x="895" y="1630" type="curve" smooth="yes"/>
      <point x="793" y="1630"/>
      <point x="691" y="1563"/>
      <point x="691" y="1430" type="curve" smooth="yes"/>
      <point x="691" y="1301"/>
      <point x="777" y="1231"/>
      <point x="870" y="1221" type="curve"/>
      <point x="864" y="1144"/>
      <point x="794" y="1100"/>
      <point x="714" y="1099" type="curve"/>
    </contour>
  </outline>
</glyph>
<glyph name="daggerdbl" format="1">
  <advance width="1475"/>
  <unicode hex="2021"/>
  <outline>
    <contour>
      <point x="729" y="-39" type="curve" smooth="yes"/>
      <point x="823" y="-39"/>
      <point x="919" y="19"/>
      <point x="919" y="130" type="curve" smooth="yes"/>
      <point x="919" y="231"/>
      <point x="852" y="363"/>
      <point x="790" y="485" type="curve"/>
      <point x="896" y="445"/>
      <point x="1021" y="389"/>
      <point x="1114" y="389" type="curve" smooth="yes"/>
      <point x="1192" y="389"/>
      <point x="1231" y="460"/>
      <point x="1231" y="530" type="curve" smooth="yes"/>
      <point x="1231" y="602"/>
      <point x="1192" y="673"/>
      <point x="1113" y="673" type="curve" smooth="yes"/>
      <point x="1023" y="673"/>
      <point x="901" y="620"/>
      <point x="798" y="581" type="curve"/>
      <point x="798" y="1007" type="line"/>
      <point x="901" y="968"/>
      <point x="1023" y="915"/>
      <point x="1113" y="915" type="curve" smooth="yes"/>
      <point x="1192" y="915"/>
      <point x="1231" y="986"/>
      <point x="1231" y="1058" type="curve" smooth="yes"/>
      <point x="1231" y="1128"/>
      <point x="1192" y="1199"/>
      <point x="1114" y="1199" type="curve" smooth="yes"/>
      <point x="1021" y="1199"/>
      <point x="896" y="1143"/>
      <point x="790" y="1103" type="curve"/>
      <point x="852" y="1225"/>
      <point x="919" y="1357"/>
      <point x="919" y="1458" type="curve" smooth="yes"/>
      <point x="919" y="1569"/>
      <point x="823" y="1627"/>
      <point x="729" y="1627" type="curve" smooth="yes"/>
      <point x="636" y="1627"/>
      <point x="544" y="1571"/>
      <point x="544" y="1457" type="curve" smooth="yes"/>
      <point x="544" y="1358"/>
      <point x="605" y="1230"/>
      <point x="666" y="1110" type="curve"/>
      <point x="548" y="1156"/>
      <point x="440" y="1199"/>
      <point x="358" y="1199" type="curve" smooth="yes"/>
      <point x="280" y="1199"/>
      <point x="240" y="1127"/>
      <point x="240" y="1056" type="curve" smooth="yes"/>
      <point x="240" y="985"/>
      <point x="279" y="915"/>
      <point x="359" y="915" type="curve" smooth="yes"/>
      <point x="439" y="915"/>
      <point x="545" y="957"/>
      <point x="661" y="1002" type="curve"/>
      <point x="661" y="586" type="line"/>
      <point x="545" y="631"/>
      <point x="439" y="673"/>
      <point x="359" y="673" type="curve" smooth="yes"/>
      <point x="279" y="673"/>
      <point x="240" y="603"/>
      <point x="240" y="532" type="curve" smooth="yes"/>
      <point x="240" y="461"/>
      <point x="280" y="389"/>
      <point x="358" y="389" type="curve" smooth="yes"/>
      <point x="440" y="389"/>
      <point x="548" y="432"/>
      <point x="666" y="478" type="curve"/>
      <point x="605" y="358"/>
      <point x="544" y="230"/>
      <point x="544" y="131" type="curve" smooth="yes"/>
      <point x="544" y="17"/>
      <point x="636" y="-39"/>
    </contour>
  </outline>
</glyph>
<glyph name="bullet" format="1">
  <advance width="1364"/>
  <unicode hex="2022"/>
  <outline>
    <contour>
      <point x="694" y="195" type="curve" smooth="yes"/>
      <point x="1064" y="195"/>
      <point x="1170" y="407"/>
      <point x="1170" y="726" type="curve" smooth="yes"/>
      <point x="1170" y="1076"/>
      <point x="1038" y="1254"/>
      <point x="696" y="1254" type="curve" smooth="yes"/>
      <point x="330" y="1254"/>
      <point x="188" y="1102"/>
      <point x="188" y="726" type="curve" smooth="yes"/>
      <point x="188" y="381"/>
      <point x="298" y="195"/>
    </contour>
  </outline>
</glyph>
<glyph name="perthousand" format="1">
  <advance width="4101"/>
  <unicode hex="2030"/>
  <outline>
    <contour>
      <point x="3429" y="129" type="curve" smooth="yes"/>
      <point x="3204" y="129"/>
      <point x="2979" y="146"/>
      <point x="2979" y="441" type="curve" smooth="yes"/>
      <point x="2979" y="798" type="line" smooth="yes"/>
      <point x="2979" y="1091"/>
      <point x="3204" y="1109"/>
      <point x="3428" y="1109" type="curve" smooth="yes"/>
      <point x="3651" y="1109"/>
      <point x="3879" y="1092"/>
      <point x="3879" y="799" type="curve" smooth="yes"/>
      <point x="3879" y="442" type="line" smooth="yes"/>
      <point x="3879" y="153"/>
      <point x="3650" y="129"/>
    </contour>
    <contour>
      <point x="3431" y="347" type="line"/>
      <point x="3476" y="347" type="line"/>
      <point x="3476" y="892" type="line"/>
      <point x="3431" y="892" type="line"/>
      <point x="3386" y="892" type="line"/>
      <point x="3386" y="347" type="line"/>
    </contour>
    <component base="percent"/>
  </outline>
</glyph>
<glyph name="fraction" format="1">
  <advance width="1236"/>
  <unicode hex="2044"/>
  <outline>
    <contour>
      <point x="225" y="0" type="line"/>
      <point x="580" y="0" type="line"/>
      <point x="1011" y="1595" type="line"/>
      <point x="577" y="1595" type="line"/>
    </contour>
  </outline>
</glyph>
<glyph name="foursuperior" format="1">
  <advance width="1226"/>
  <unicode hex="2074"/>
  <outline>
    <contour>
      <point x="719" y="553" type="line"/>
      <point x="1078" y="553" type="line"/>
      <point x="1078" y="1183" type="line"/>
      <point x="719" y="1183" type="line"/>
      <point x="719" y="958" type="line"/>
      <point x="589" y="958" type="line"/>
      <point x="589" y="994" type="line"/>
      <point x="758" y="1595" type="line"/>
      <point x="373" y="1595" type="line"/>
      <point x="203" y="994" type="line"/>
      <point x="203" y="714" type="line"/>
      <point x="719" y="714" type="line"/>
    </contour>
  </outline>
</glyph>
<glyph name="Euro" format="1">
  <advance width="1357"/>
  <unicode hex="20AC"/>
  <outline>
    <contour>
      <point x="867" y="-40" type="curve" smooth="yes"/>
      <point x="1171" y="-40"/>
      <point x="1553" y="-6"/>
      <point x="1553" y="369" type="curve" smooth="yes"/>
      <point x="1553" y="503" type="line"/>
      <point x="949" y="503" type="line"/>
      <point x="949" y="233" type="line"/>
      <point x="861" y="233" type="line"/>
      <point x="776" y="233" type="line"/>
      <point x="776" y="607" type="line"/>
      <point x="1007" y="607" type="line"/>
      <point x="1027" y="758" type="line"/>
      <point x="776" y="758" type="line"/>
      <point x="776" y="837" type="line"/>
      <point x="1007" y="837" type="line"/>
      <point x="1027" y="988" type="line"/>
      <point x="776" y="988" type="line"/>
      <point x="776" y="1356" type="line"/>
      <point x="862" y="1356" type="line"/>
      <point x="949" y="1356" type="line"/>
      <point x="949" y="1079" type="line"/>
      <point x="1553" y="1079" type="line"/>
      <point x="1553" y="1227" type="line" smooth="yes"/>
      <point x="1553" y="1606"/>
      <point x="1179" y="1636"/>
      <point x="864" y="1636" type="curve" smooth="yes"/>
      <point x="564" y="1636"/>
      <point x="171" y="1598"/>
      <point x="171" y="1226" type="curve" smooth="yes"/>
      <point x="171" y="988" type="line"/>
      <point x="43" y="988" type="line"/>
      <point x="23" y="837" type="line"/>
      <point x="171" y="837" type="line"/>
      <point x="171" y="758" type="line"/>
      <point x="43" y="758" type="line"/>
      <point x="23" y="607" type="line"/>
      <point x="171" y="607" type="line"/>
      <point x="171" y="370" type="line" smooth="yes"/>
      <point x="171" y="-9"/>
      <point x="592" y="-40"/>
    </contour>
  </outline>
</glyph>
<glyph name="uni2113" format="1">
  <advance width="1416"/>
  <unicode hex="2113"/>
  <outline>
    <contour>
      <point x="849" y="-25" type="curve" smooth="yes"/>
      <point x="960" y="-25"/>
      <point x="1109" y="-7"/>
      <point x="1110" y="-7" type="curve"/>
      <point x="1110" y="223" type="line"/>
      <point x="985.5" y="223"/>
      <point x="917" y="240"/>
      <point x="879.625" y="267.875" type="curve" smooth="yes"/>
      <point x="842.25" y="295.75"/>
      <point x="836" y="334.5"/>
      <point x="836" y="378" type="curve" smooth="yes"/>
      <point x="836" y="832" type="line"/>
      <point x="1245" y="1078"/>
      <point x="1462" y="1333"/>
      <point x="1393" y="1613" type="curve" smooth="yes"/>
      <point x="1347.85" y="1796.81"/>
      <point x="1159.06" y="1892.07"/>
      <point x="949.771" y="1890.58" type="curve" smooth="yes"/>
      <point x="639.862" y="1888.38"/>
      <point x="285" y="1674.05"/>
      <point x="285" y="1221" type="curve" smooth="yes"/>
      <point x="285" y="729" type="line"/>
      <point x="118" y="610" type="line"/>
      <point x="118" y="398" type="line"/>
      <point x="285" y="529" type="line"/>
      <point x="285" y="359" type="line" smooth="yes"/>
      <point x="285" y="37"/>
      <point x="440" y="-25"/>
    </contour>
    <contour>
      <point x="832" y="1052" type="curve"/>
      <point x="832" y="1355" type="line" smooth="yes"/>
      <point x="832" y="1546"/>
      <point x="875" y="1653"/>
      <point x="1013" y="1658" type="curve" smooth="yes"/>
      <point x="1118" y="1662"/>
      <point x="1154" y="1610"/>
      <point x="1164" y="1543" type="curve" smooth="yes"/>
      <point x="1206" y="1250"/>
      <point x="832" y="1055"/>
    </contour>
  </outline>
</glyph>
<glyph name="estimated" format="1">
  <advance width="1425"/>
  <unicode hex="212E"/>
  <outline>
    <contour>
      <point x="751" y="-20" type="curve" smooth="yes"/>
      <point x="958" y="-20"/>
      <point x="1093" y="70"/>
      <point x="1193" y="188" type="curve"/>
      <point x="1141" y="239" type="line"/>
      <point x="1043" y="134"/>
      <point x="931" y="53"/>
      <point x="751" y="53" type="curve" smooth="yes"/>
      <point x="521" y="53"/>
      <point x="438" y="245"/>
      <point x="437" y="521" type="curve"/>
      <point x="1201" y="521" type="line"/>
      <point x="1201" y="869"/>
      <point x="1053" y="1102"/>
      <point x="733" y="1102" type="curve" smooth="yes"/>
      <point x="410" y="1102"/>
      <point x="180" y="861"/>
      <point x="180" y="541" type="curve" smooth="yes"/>
      <point x="180" y="221"/>
      <point x="368" y="-20"/>
    </contour>
    <contour>
      <point x="439" y="601" type="line"/>
      <point x="454" y="863"/>
      <point x="566" y="1042"/>
      <point x="739" y="1042" type="curve" smooth="yes"/>
      <point x="948" y="1042"/>
      <point x="989" y="836"/>
      <point x="989" y="601" type="curve"/>
    </contour>
  </outline>
</glyph>
<glyph name="partialdiff" format="1">
  <advance width="1414"/>
  <unicode hex="2202"/>
  <outline>
    <contour>
      <point x="642" y="-24" type="curve" smooth="yes"/>
      <point x="1115" y="-24"/>
      <point x="1210" y="335"/>
      <point x="1210" y="674" type="curve" smooth="yes"/>
      <point x="1210" y="1126"/>
      <point x="1032" y="1432"/>
      <point x="440" y="1432" type="curve"/>
      <point x="415" y="1216" type="line"/>
      <point x="803" y="1216"/>
      <point x="907" y="1058"/>
      <point x="912" y="824" type="curve"/>
      <point x="889" y="862"/>
      <point x="825" y="908"/>
      <point x="718" y="908" type="curve" smooth="yes"/>
      <point x="377" y="908"/>
      <point x="225" y="657"/>
      <point x="225" y="395" type="curve" smooth="yes"/>
      <point x="225" y="150"/>
      <point x="363" y="-24"/>
    </contour>
    <contour>
      <point x="680" y="219" type="curve" smooth="yes"/>
      <point x="606" y="219"/>
      <point x="545" y="284"/>
      <point x="545" y="400" type="curve" smooth="yes"/>
      <point x="545" y="493"/>
      <point x="588" y="664"/>
      <point x="721" y="664" type="curve" smooth="yes"/>
      <point x="773" y="664"/>
      <point x="813" y="635"/>
      <point x="862" y="560" type="curve"/>
      <point x="863" y="552"/>
      <point x="863" y="543"/>
      <point x="863" y="534" type="curve" smooth="yes"/>
      <point x="863" y="446"/>
      <point x="827" y="219"/>
    </contour>
  </outline>
</glyph>
<glyph name="emptyset" format="1">
  <advance width="1865"/>
  <unicode hex="2205"/>
  <outline>
    <contour>
      <point x="358" y="-81" type="line"/>
      <point x="508" y="97" type="line"/>
      <point x="628" y="18"/>
      <point x="773" y="-25"/>
      <point x="929" y="-25" type="curve" smooth="yes"/>
      <point x="1330" y="-25"/>
      <point x="1658" y="297"/>
      <point x="1658" y="696" type="curve" smooth="yes"/>
      <point x="1658" y="895"/>
      <point x="1577" y="1073"/>
      <point x="1448" y="1204" type="curve"/>
      <point x="1599" y="1382" type="line"/>
      <point x="1509" y="1460" type="line"/>
      <point x="1358" y="1281" type="line"/>
      <point x="1237" y="1367"/>
      <point x="1089" y="1419"/>
      <point x="929" y="1419" type="curve" smooth="yes"/>
      <point x="530" y="1419"/>
      <point x="202" y="1127"/>
      <point x="202" y="696" type="curve" smooth="yes"/>
      <point x="202" y="474"/>
      <point x="285" y="292"/>
      <point x="420" y="167" type="curve"/>
      <point x="275" y="-6" type="line"/>
    </contour>
    <contour>
      <point x="512" y="276" type="line"/>
      <point x="411" y="378"/>
      <point x="351" y="524"/>
      <point x="351" y="695" type="curve" smooth="yes"/>
      <point x="351" y="1037"/>
      <point x="600" y="1285"/>
      <point x="929" y="1285" type="curve" smooth="yes"/>
      <point x="1057" y="1285"/>
      <point x="1174" y="1243"/>
      <point x="1268" y="1174" type="curve"/>
    </contour>
    <contour>
      <point x="928" y="109" type="curve" smooth="yes"/>
      <point x="804" y="109"/>
      <point x="691" y="142"/>
      <point x="599" y="204" type="curve"/>
      <point x="1355" y="1095" type="line"/>
      <point x="1451" y="988"/>
      <point x="1509" y="846"/>
      <point x="1509" y="695" type="curve" smooth="yes"/>
      <point x="1509" y="382"/>
      <point x="1258" y="109"/>
    </contour>
  </outline>
</glyph>
<glyph name="product" format="1">
  <advance width="1765"/>
  <unicode hex="220F"/>
  <outline>
    <contour>
      <point x="786" y="1300" type="line"/>
      <point x="979" y="1300" type="line"/>
      <point x="979" y="-140" type="line"/>
      <point x="1583" y="-140" type="line"/>
      <point x="1583" y="1595" type="line"/>
      <point x="182" y="1595" type="line"/>
      <point x="182" y="-140" type="line"/>
      <point x="786" y="-140" type="line"/>
    </contour>
  </outline>
</glyph>
<glyph name="summation" format="1">
  <advance width="1420"/>
  <unicode hex="2211"/>
  <outline>
    <contour>
      <point x="177" y="0" type="line"/>
      <point x="1324" y="0" type="line"/>
      <point x="1324" y="301" type="line"/>
      <point x="770" y="301" type="line"/>
      <point x="1141" y="736" type="line"/>
      <point x="1141" y="827" type="line"/>
      <point x="753" y="1307" type="line"/>
      <point x="1276" y="1307" type="line"/>
      <point x="1276" y="1595" type="line"/>
      <point x="177" y="1595" type="line"/>
      <point x="177" y="1308" type="line"/>
      <point x="575" y="835" type="line"/>
      <point x="177" y="320" type="line"/>
    </contour>
  </outline>
</glyph>
<glyph name="minus" format="1">
  <advance width="1540"/>
  <unicode hex="2212"/>
  <outline>
    <contour>
      <point x="188" y="670" type="line"/>
      <point x="1350" y="670" type="line"/>
      <point x="1350" y="908" type="line"/>
      <point x="188" y="908" type="line"/>
    </contour>
  </outline>
</glyph>
<glyph name="uni2219" format="1">
  <advance width="1757"/>
  <unicode hex="2219"/>
  <outline>
    <contour>
      <point x="634" y="472" type="line"/>
      <point x="1205" y="472" type="line"/>
      <point x="1205" y="956" type="line"/>
      <point x="634" y="956" type="line"/>
    </contour>
  </outline>
</glyph>
<glyph name="radical" format="1">
  <advance width="1453"/>
  <unicode hex="221A"/>
  <outline>
    <contour>
      <point x="542" y="0" type="line"/>
      <point x="691" y="0" type="line"/>
      <point x="1324" y="1464" type="line"/>
      <point x="1094" y="1464" type="line"/>
      <point x="598" y="251" type="line"/>
      <point x="381" y="658" type="line"/>
      <point x="156" y="658" type="line"/>
    </contour>
  </outline>
</glyph>
<glyph name="infinity" format="1">
  <advance width="1830"/>
  <unicode hex="221E"/>
  <outline>
    <contour>
      <point x="1282" y="296" type="curve" smooth="yes"/>
      <point x="1539" y="295"/>
      <point x="1668" y="518"/>
      <point x="1668" y="738" type="curve" smooth="yes"/>
      <point x="1668" y="952"/>
      <point x="1546" y="1164"/>
      <point x="1298" y="1170" type="curve" smooth="yes"/>
      <point x="1152" y="1173"/>
      <point x="990" y="1084"/>
      <point x="899" y="953" type="curve"/>
      <point x="837" y="1074"/>
      <point x="692" y="1159"/>
      <point x="546" y="1159" type="curve" smooth="yes"/>
      <point x="282" y="1159"/>
      <point x="150" y="945"/>
      <point x="150" y="732" type="curve" smooth="yes"/>
      <point x="150" y="516"/>
      <point x="283" y="300"/>
      <point x="548" y="300" type="curve" smooth="yes"/>
      <point x="690" y="300"/>
      <point x="825" y="395"/>
      <point x="872" y="533" type="curve"/>
      <point x="947" y="393"/>
      <point x="1114" y="296"/>
    </contour>
    <contour>
      <point x="546" y="516" type="curve" smooth="yes"/>
      <point x="405" y="516"/>
      <point x="335" y="622"/>
      <point x="335" y="729" type="curve" smooth="yes"/>
      <point x="335" y="834"/>
      <point x="404" y="939"/>
      <point x="542" y="939" type="curve" smooth="yes"/>
      <point x="646" y="939"/>
      <point x="756" y="836"/>
      <point x="808" y="689" type="curve"/>
      <point x="752" y="587"/>
      <point x="644" y="516"/>
    </contour>
    <contour>
      <point x="1278" y="509" type="curve" smooth="yes"/>
      <point x="1148" y="509"/>
      <point x="1021" y="632"/>
      <point x="966" y="809" type="curve"/>
      <point x="1026" y="889"/>
      <point x="1141" y="942"/>
      <point x="1252" y="942" type="curve" smooth="yes"/>
      <point x="1339" y="942"/>
      <point x="1483" y="894"/>
      <point x="1483" y="719" type="curve" smooth="yes"/>
      <point x="1483" y="612"/>
      <point x="1415" y="509"/>
    </contour>
  </outline>
</glyph>
<glyph name="approxequal" format="1">
  <advance width="1402"/>
  <unicode hex="2248"/>
  <outline>
    <contour>
      <point x="1015" y="754" type="curve" smooth="yes"/>
      <point x="1161" y="738"/>
      <point x="1220" y="803"/>
      <point x="1220" y="1063" type="curve"/>
      <point x="1061" y="1063" type="line"/>
      <point x="1056" y="984"/>
      <point x="1024" y="958"/>
      <point x="971" y="958" type="curve" smooth="yes"/>
      <point x="864" y="958"/>
      <point x="670" y="1052"/>
      <point x="445" y="1078" type="curve" smooth="yes"/>
      <point x="304" y="1094"/>
      <point x="210" y="1000"/>
      <point x="210" y="761" type="curve"/>
      <point x="378" y="761" type="line"/>
      <point x="377" y="846"/>
      <point x="411" y="875"/>
      <point x="470" y="875" type="curve" smooth="yes"/>
      <point x="585" y="875"/>
      <point x="854" y="772"/>
    </contour>
    <contour>
      <point x="1015" y="309" type="curve" smooth="yes"/>
      <point x="1161" y="293"/>
      <point x="1220" y="358"/>
      <point x="1220" y="618" type="curve"/>
      <point x="1061" y="618" type="line"/>
      <point x="1056" y="539"/>
      <point x="1024" y="513"/>
      <point x="971" y="513" type="curve" smooth="yes"/>
      <point x="864" y="513"/>
      <point x="670" y="607"/>
      <point x="445" y="633" type="curve" smooth="yes"/>
      <point x="304" y="649"/>
      <point x="210" y="555"/>
      <point x="210" y="316" type="curve"/>
      <point x="378" y="316" type="line"/>
      <point x="377" y="401"/>
      <point x="411" y="430"/>
      <point x="470" y="430" type="curve" smooth="yes"/>
      <point x="585" y="430"/>
      <point x="854" y="327"/>
    </contour>
  </outline>
</glyph>
<glyph name="notequal" format="1">
  <advance width="1271"/>
  <unicode hex="2260"/>
  <outline>
    <contour>
      <point x="388" y="174" type="line"/>
      <point x="567" y="174" type="line"/>
      <point x="651" y="414" type="line"/>
      <point x="1054" y="414" type="line"/>
      <point x="1054" y="603" type="line"/>
      <point x="717" y="603" type="line"/>
      <point x="782" y="792" type="line"/>
      <point x="1054" y="792" type="line"/>
      <point x="1054" y="981" type="line"/>
      <point x="848" y="981" type="line"/>
      <point x="933" y="1224" type="line"/>
      <point x="755" y="1224" type="line"/>
      <point x="670" y="981" type="line"/>
      <point x="219" y="981" type="line"/>
      <point x="219" y="792" type="line"/>
      <point x="604" y="792" type="line"/>
      <point x="538" y="603" type="line"/>
      <point x="219" y="603" type="line"/>
      <point x="219" y="414" type="line"/>
      <point x="472" y="414" type="line"/>
    </contour>
  </outline>
</glyph>
<glyph name="lessequal" format="1">
  <advance width="1356"/>
  <unicode hex="2264"/>
  <outline>
    <contour>
      <point x="1116" y="410" type="line"/>
      <point x="1116" y="814" type="line"/>
      <point x="515" y="937" type="line"/>
      <point x="1116" y="1052" type="line"/>
      <point x="1116" y="1457" type="line"/>
      <point x="240" y="1138" type="line"/>
      <point x="240" y="729" type="line"/>
    </contour>
    <contour>
      <point x="234" y="0" type="line"/>
      <point x="1116" y="0" type="line"/>
      <point x="1116" y="336" type="line"/>
      <point x="234" y="336" type="line"/>
    </contour>
  </outline>
</glyph>
<glyph name="lozenge" format="1">
  <advance width="1310"/>
  <unicode hex="25CA"/>
  <outline>
    <contour>
      <point x="499" y="0" type="line"/>
      <point x="798" y="0" type="line"/>
      <point x="1201" y="810" type="line"/>
      <point x="798" y="1595" type="line"/>
      <point x="499" y="1595" type="line"/>
      <point x="108" y="810" type="line"/>
    </contour>
    <contour>
      <point x="656" y="285" type="line"/>
      <point x="404" y="810" type="line"/>
      <point x="656" y="1313" type="line"/>
      <point x="911" y="810" type="line"/>
    </contour>
  </outline>
</glyph>
<glyph name="caron.alt" format="1">
  <advance width="1211"/>
  <outline>
    <contour>
      <point x="742" y="2142"/>
      <point x="640" y="2075"/>
      <point x="640" y="1942" type="curve" smooth="yes"/>
      <point x="640" y="1813"/>
      <point x="726" y="1743"/>
      <point x="819" y="1733" type="curve"/>
      <point x="813" y="1656"/>
      <point x="743" y="1612"/>
      <point x="663" y="1611" type="curve"/>
      <point x="663" y="1502" type="line"/>
      <point x="847" y="1502"/>
      <point x="1054" y="1685.53"/>
      <point x="1054" y="1902" type="curve" smooth="yes"/>
      <point x="1054" y="2031"/>
      <point x="988" y="2142"/>
      <point x="844" y="2142" type="curve" smooth="yes"/>
    </contour>
    <contour>
      <point x="364" y="1300" type="move" name="_caron.alt"/>
    </contour>
  </outline>
</glyph>
<glyph name="foundryicon" format="1">
  <advance width="1394"/>
  <outline>
    <contour>
      <point x="501" y="405" type="line"/>
      <point x="501" y="672" type="line"/>
      <point x="607" y="672" type="line"/>
      <point x="777" y="523" type="line"/>
      <point x="777" y="672" type="line"/>
      <point x="883" y="672" type="line"/>
      <point x="883" y="405" type="line"/>
      <point x="777" y="405" type="line"/>
      <point x="607" y="552" type="line"/>
      <point x="607" y="405" type="line"/>
    </contour>
    <contour>
      <point x="296" y="2" type="line"/>
      <point x="685" y="278" type="line"/>
      <point x="1082" y="2" type="line"/>
      <point x="938" y="461" type="line"/>
      <point x="1329" y="755" type="line"/>
      <point x="844" y="755" type="line"/>
      <point x="685" y="1215" type="line"/>
      <point x="535" y="755" type="line"/>
      <point x="50" y="755" type="line"/>
      <point x="439" y="461" type="line"/>
    </contour>
  </outline>
</glyph>
